<?xml version="1.0" encoding="utf-8"?>
<!-- Generator: Adobe Illustrator 26.0.3, SVG Export Plug-In . SVG Version: 6.00 Build 0)  -->
<svg version="1.1" id="Layer_1" xmlns="http://www.w3.org/2000/svg" xmlns:xlink="http://www.w3.org/1999/xlink" x="0px" y="0px"
	 viewBox="0 0 217.8 316" style="enable-background:new 0 0 217.8 316;" xml:space="preserve">
<style type="text/css">
	.st0{opacity:0.15;fill:#191610;}
	.st1{fill:#7D8FFF;stroke:#231F20;stroke-linejoin:round;stroke-miterlimit:10;}
	.st2{fill:#2B261C;}
	.st3{fill:#D95B86;stroke:#231F20;stroke-miterlimit:10;}
	.st4{fill:#FEF1F6;}
</style>
<g>
	<ellipse class="st0" cx="122.7" cy="303.9" rx="74.7" ry="12.1"/>
	<path class="st1" d="M142,76.5c0,0,11.9-5.8,16.5-23.8c4.6-18,4-21.7,8.6-25.1s24.5-12.1,35.8-23.5s8.3,6.6-6.7,20.4
		c-9.3,8.6-13.5,11-13.5,11s15.3-7,18.6-3.7c3.4,3.4-6.4,14.7-18,24.8c0,0,15.6-5.8,11.9,3.7c-3.7,9.5-23.8,22.9-55,19.6L142,76.5z"
		/>
	<path class="st1" d="M62.4,77.3c0,0-13.3-9.2-18.1-19.9S41.1,42,35.4,37.4s-19.3-23.6-22-25.9s-8.9,8.2,5,29c0,0-3.7-2.8-8.9-7
		c-7.1-5.6-14-2.8-3.9,10.7s24.1,18.2,24.1,18.2s-10.3-4.1-11.5-0.2c-1.1,3.9,10.3,17,30,18.3C67.9,81.6,62.4,77.3,62.4,77.3z"/>
	<g>
		<g>
			<path class="st2" d="M131.4,177.5c-0.5,4.4-0.7,8.8-0.1,13.2c0.5,4.1,1.8,7.9,3.6,11.6c3.5,7.3,8.4,13.9,14,19.6
				c1.4,1.4,3.5-0.7,2.1-2.1c-5.4-5.4-10-11.7-13.3-18.6c-1.8-3.6-3-7.5-3.5-11.5c-0.5-4.1-0.3-8.2,0.2-12.3
				C134.7,175.6,131.7,175.6,131.4,177.5L131.4,177.5z"/>
		</g>
	</g>
	<g>
		<g>
			<path class="st2" d="M91.4,189.7c-0.7,12.9,3.7,25.7,12.1,35.4c1.3,1.5,3.4-0.7,2.1-2.1c-7.9-9.2-11.9-21.3-11.2-33.3
				C94.6,187.8,91.6,187.8,91.4,189.7L91.4,189.7z"/>
		</g>
	</g>
	<g>
		<path class="st2" d="M150.5,220.4c-4.1,3-8.8,6.4-10.9,11c-0.6,1.3-1,3.1,0.1,4.1c1.2,1.2,3.3,0.2,4.6-1
			C148.3,230.8,153,219.6,150.5,220.4z"/>
	</g>
	<g>
		<path class="st2" d="M106,224.1c0-2.3-10.8,4.7-13.8,9.6c-0.5,0.7-0.9,1.6-0.7,2.4c0.2,0.9,1.2,1.5,2.1,1.6
			c0.9,0.1,1.9-0.2,2.7-0.6C101.1,234.8,104.7,229.3,106,224.1"/>
	</g>
	<path class="st3" d="M77.3,43.1c0,0-20.5,14.2-21,37.3s0.7,37.1-1.9,47.4c-2.5,10.3-18.5,46-7.5,64.1s33.8,13.1,36.9-1.4
		c0,0,7.7,16.4,31.7,10.9c18.9-4.3,19.2-23.2,19.2-23.2s16.9,21.4,40.5,5.7c16.8-11.2,11.4-26.8,11.4-26.8s26,4.5,30.1-12.9
		s-13.4-29.7-26.2-36.4c-12.8-6.7-37.3-16.3-44.9-27.9S135,46.9,112.9,40.4S77.3,43.1,77.3,43.1z"/>
	<g>
		<g>
			<path class="st2" d="M65.9,11.7c-3.7,11.9,0.2,25.6,6.3,36c1.8,3,3.8,5.8,6.1,8.4c1.3,1.4,3.4-0.7,2.1-2.1
				c-5.1-5.6-8.7-12.5-10.8-19.7c-2.1-7-3-14.7-0.8-21.8C69.4,10.6,66.5,9.8,65.9,11.7L65.9,11.7z"/>
		</g>
	</g>
	<g>
		<g>
			<path class="st2" d="M121.8,14.6c0,7.7-2.6,15.3-6.1,22.1c-3.1,6-7,11.7-11.7,16.6c-1.3,1.4,0.8,3.5,2.1,2.1
				c5-5.2,9.1-11.2,12.4-17.6c3.7-7.2,6.3-15.1,6.4-23.3C124.8,12.6,121.8,12.6,121.8,14.6L121.8,14.6z"/>
		</g>
	</g>
	<path class="st4" d="M89.1,44.6c0,0-9.1,2.6-16,12.3c-5.8,8-13.2,27.2-4.7,42.9s32.5,12.7,40.1-2.7s6-31.8,4.2-37.7
		C110.9,53.7,106.5,40,89.1,44.6z"/>
	<path class="st2" d="M78.6,68.7c0,0-2,0.5-2.7,6.5c-0.3,2.7,1.9,2.6,2.6,1.1S80.9,68.6,78.6,68.7z"/>
	<path class="st2" d="M95.2,69.9c0,0-2.1,1.5-2.4,3.1c-0.3,1.7-1.3,7.2,1.2,6C96.5,77.9,97.2,69.4,95.2,69.9z"/>
	<path class="st2" d="M79.1,85.5c0,0,1.9,4.9,5,4s4.2-3.3,4.2-3.3s-0.1,0-0.6,0.3c-0.8,0.6-2.4,1.7-4.1,1.9c-1.9,0.2-3.6-2-4.3-2.8
		C79.2,85.2,79.1,85.5,79.1,85.5z"/>
	<path class="st1" d="M120.5,10.3c0,0-5.7-0.7-6.3,3.4c-0.6,4.1,5.4,5.4,8.8,3.3c0,0,3.6,5.4,8.6,3.8c5-1.6,2.5-7.8-0.8-8.1
		c0,0,4.9-1.7,3-5.2c-1.9-3.4-5.6-1.8-7,0c0,0-1.4-6.4-6.1-4S120.5,10.3,120.5,10.3z"/>
	<path class="st1" d="M68.9,3.8c0,0-2.2-5.2-5.6-2.6s0,6.6,0,6.6s-6.1,0.1-4.5,4.5c2.2,5.8,7.9,1.4,7.9,1.4s4.5,5.4,8.3,1.1
		c3.1-3.5-2.6-6.4-2.6-6.4s5.6-3.2,2.6-5.9C72-0.1,68.9,3.8,68.9,3.8z"/>
	<path class="st4" d="M79.1,169.9c0,0-2.3-4.1-5.7-2c-3.3,2.1-0.7,5.9,1.2,6.5c0,0-6.1,1.4-3.6,6c2.3,4.3,7.5-1.1,7.5-1.1
		s1,6.5,5,5.3c4-1.3,1.3-7.2,1.3-7.2s5.8,2.1,6.2-2.3s-6.3-3.2-6.3-3.2s3.1-4.3,0.1-5.8C80.7,164,79.1,169.9,79.1,169.9z"/>
	<path class="st4" d="M128.3,160.4c0,0-5.5-1.5-6.5,2.2c-1,3.7,5.6,3.9,5.6,3.9s-5,4.7-1.4,6.9c3.6,2.2,6-4.4,6-4.4s3.5,6,6.3,3.5
		c3.6-3.2-2.5-6.9-2.5-6.9s6.1,0.6,5.7-3.9c-0.5-4.5-7-1.5-7-1.5s1.6-5.7-2.8-5.4C127.2,154.9,128.3,160.4,128.3,160.4z"/>
	<path class="st4" d="M175,141.5c0,0-3.9-4.3-6.5-1.5c-1.6,1.8,0.5,4.5,3,5.7c0,0-4.5,0.2-3.4,4.3c1.1,4.1,6.1-0.5,6.1-0.5
		s-1.1,5.9,3.5,5.2c3.9-0.6,1-6.1,1-6.1s6.1,1.6,6.2-1.9c0.1-3.2-5.7-3.2-5.7-3.2s4.9-4.4,0.3-6.4C176.3,135.6,175,141.5,175,141.5z
		"/>
</g>
</svg>
