<?xml version="1.0" encoding="utf-8"?>
<!-- Generator: Adobe Illustrator 26.0.3, SVG Export Plug-In . SVG Version: 6.00 Build 0)  -->
<svg version="1.1" id="Layer_1" xmlns="http://www.w3.org/2000/svg" xmlns:xlink="http://www.w3.org/1999/xlink" x="0px" y="0px"
	 viewBox="0 0 220 284.1" style="enable-background:new 0 0 220 284.1;" xml:space="preserve">
<style type="text/css">
	.st0{fill:#85B8E5;stroke:#231F20;stroke-miterlimit:10;}
	.st1{fill:#F89920;stroke:#2B261C;stroke-miterlimit:10;}
	.st2{opacity:0.15;fill:#191610;}
	.st3{fill:#FFC30D;stroke:#231F20;stroke-linecap:round;stroke-linejoin:round;stroke-miterlimit:10;}
	.st4{fill:#FFC30D;stroke:#2B261C;stroke-miterlimit:10;}
	.st5{fill:#B3CEE2;}
	.st6{fill:#101E3A;}
	.st7{fill:#101E3A;stroke:#231F20;stroke-width:1.25;stroke-linecap:round;stroke-miterlimit:10;}
</style>
<g>
	<path class="st0" d="M164.6,129.6l52.6,73.8c3.2,4.5,2.9,10.6-0.8,14.7l-20.8,22.9c-4.5,4.9-12.2,5.1-16.9,0.4L125.8,184
		c-3.6-3.6-4.5-9.2-2-13.8l21-39.3C148.9,123.3,159.5,122.6,164.6,129.6z"/>
	<path class="st1" d="M217.2,203.4l-15.8-22.2c-0.7-0.1-1.2,0.2-1.2,1.3c0,3,1.8,8.7,0,8.1c-1.8-0.7-4.6-7.1-5-4.7
		c-0.5,2.4,3.4,18.2,2.1,16.4c-1.4-1.8-5.7-15.6-8.5-13.8s-6.4,6.9-6.4,6.9l-9.6,39.5l5.9,6.4c4.7,4.7,12.4,4.6,16.9-0.4l20.8-22.9
		C220.1,214.1,220.5,207.9,217.2,203.4z"/>
	<path class="st0" d="M55.4,129.6L2.7,203.4c-3.2,4.5-2.9,10.6,0.8,14.7l20.8,22.9c4.5,4.9,12.2,5.1,16.9,0.4L94.2,184
		c3.6-3.6,4.5-9.2,2-13.8l-21-39.3C71.1,123.3,60.4,122.6,55.4,129.6z"/>
	<path class="st1" d="M42.2,192.4c0,0-3.2,4.6-6.2,3.7s-1.6-6.9-2.3-8c-0.7-1.1-6.4,8.9-8.3,9.6c-1.8,0.7,0.2-13.3,0-15.8
		c-0.2-2.1-7.4,2-9.8,3.4L2.7,203.4c-3.2,4.5-2.9,10.6,0.8,14.7l20.8,22.9c4.5,4.9,12.2,5.1,16.9,0.4l7.5-8.1L42.2,192.4z"/>
	<ellipse class="st2" cx="109.8" cy="267.8" rx="101.1" ry="16.3"/>
	<path class="st0" d="M182.7,208c-1.2-30.4-13.6-76.9-23.2-102.7c7.8-4.6,10.2-16.4,10.9-23.2c0.2-2.2-2-3.9-4.1-3L149.6,86
		c-15-13.7-37.4-12.2-39.7-12.2c-2,0-24.8-1.5-39.8,12.3l-16.9-7c-2.1-0.9-4.3,0.8-4.1,3c0.7,6.8,3.1,18.8,11.1,23.3
		c-10.4,28-24.1,80.4-23.2,110.1c-1.1,47.2,21.7,56.9,26.4,58.4c0.5,0.2,1,0.2,1.6,0.2h17.1c2.5,0,4.7-1.8,5.2-4.3l2.5-13.6
		c11.1,1.2,19.7,0.9,20,0.9c0.3,0,9,0.3,20.3-1l2.5,13.6c0.5,2.5,2.6,4.3,5.2,4.3H155c0.5,0,1.1-0.1,1.6-0.2
		C161.6,272.4,186.6,261.8,182.7,208z"/>
	<polygon class="st3" points="104.3,57.3 105.6,39.7 99.2,42.1 99.9,16.6 82.8,26.1 90.9,53.7 98,49.5 	"/>
	<polygon class="st3" points="111.7,52 125.6,39.5 116.2,30.9 140,0.5 158,20.1 133,34.9 139.9,45.8 	"/>
	<path class="st4" d="M177.8,198.5c0,1.4-5.5,6-8.3,7.6s-1.4-4.4-3.4-7.8c-2.1-3.4-3.2,19.7-6.4,19.5s-4.1-46.4-8-40.5
		c-3.9,6-6.9,25.9-9.9,29.5c-3,3.7-12.6-8.7-15.6-10.6c-3-1.8-5,16.3-7.8,17.9s-2.5-15.1-6-12.6s-5,27.4-8.7,25.1
		c-3.7-2.3-1.6-36.3-3.4-41.6c-1.8-5.3-18.1,29.3-19.9,27.3s-2.5,0.4-4.8,1.8c-2.3,1.4-3.9-1.6-6.9-4.4s-2.5,14.4-7.8,21.7
		c-5.3,7.3-2.5-53.8-2.3-58.6c0.2-3.4-13.2,9.8-20.8,25c-0.7,6.4-1,12.4-0.8,17.7c-1.1,47.2,21.7,56.9,26.4,58.4
		c0.5,0.2,1,0.2,1.6,0.2h17.1c2.5,0,4.7-1.8,5.2-4.3l2.5-13.6c11.1,1.2,19.7,0.9,20,0.9c0.3,0,9,0.3,20.3-1l2.5,13.6
		c0.5,2.5,2.6,4.3,5.2,4.3H155c0.5,0,1.1-0.1,1.6-0.2c5-1.6,30-12.2,26.1-65.9c-0.1-2.2-0.2-4.5-0.4-6.9
		C180.8,199.5,177.8,197.4,177.8,198.5z"/>
	<path class="st5" d="M156.3,135.6c0,13.5-12.4,33.5-46.3,35.4c-25.6,1.4-47.5-15.2-46.6-35.4c1-22.8,20.9-31.1,46.4-32.8
		C142.3,100.6,156.3,117.4,156.3,135.6z"/>
	<path class="st6" d="M91.1,129.1c0,0-0.9-3.7-3.6-3.1c-2.6,0.6-3.7,5.5-3.4,6.8c0.2,1.3,2.3,4.4,4.4,4
		C90.6,136.4,92.4,133.1,91.1,129.1z"/>
	<path class="st6" d="M132.9,125.9c-1.6,0-3.2,1.1-3.7,3.2c-0.5,2.1,0.1,6.2,2,6.6c3.3,0.8,5.7-1.9,5.2-4.5
		C135.8,127.6,135,125.9,132.9,125.9z"/>
	<line class="st7" x1="92" y1="147.6" x2="128.1" y2="147.3"/>
</g>
</svg>
