<?xml version="1.0" encoding="utf-8"?>
<!-- Generator: Adobe Illustrator 26.0.3, SVG Export Plug-In . SVG Version: 6.00 Build 0)  -->
<svg version="1.1" id="Layer_1" xmlns="http://www.w3.org/2000/svg" xmlns:xlink="http://www.w3.org/1999/xlink" x="0px" y="0px"
	 viewBox="0 0 211.9 233.8" style="enable-background:new 0 0 211.9 233.8;" xml:space="preserve">
<style type="text/css">
	.st0{fill:#F264AE;stroke:#231F20;stroke-miterlimit:10;}
	.st1{opacity:0.15;fill:#191610;}
	.st2{fill:#42B983;stroke:#231F20;stroke-miterlimit:10;}
	.st3{fill:#FFC30D;stroke:#231F20;stroke-miterlimit:10;}
	.st4{fill:#F5F2EB;stroke:#2B261C;stroke-miterlimit:10;}
	.st5{fill:#F5F2EB;}
	.st6{fill:#1D1E1D;}
</style>
<g>
	<path class="st0" d="M109,38.3l7.5-36.3c0.4-2,3.1-1.9,3.4,0.1l5.6,36L109,38.3z"/>
	<ellipse class="st1" cx="108.3" cy="221.7" rx="101.1" ry="12.1"/>
	<path class="st2" d="M132.8,42.1c0,0,16.3,0.8,15.4,3.8c-1.4,4.2-5.8,8.2-9,11.3c0,0,9.6,6.8,10.3,9.6c0.4,2-9.2,11.8-9.2,11.8
		s11.2,7.8,9.9,11.4c-1.3,3.6-12.6,11.2-12.6,11.2s13.5,5.8,13.2,8.6c-0.3,2-9.9,11-9.9,11s14.5,5,13.3,8.2
		c-1.1,2.9-11.2,12.6-11.2,12.6s17,1.5,16.4,4.9c-0.6,3.3-7.6,14.4-7.6,14.4s12.9-5.1,13.6-2.5c0.7,2.6-0.1,12.8-0.1,12.8
		s10-4.7,11.9-4.2s1.7,13.7,1.7,13.7s10.6-1.6,12.4-1.3c1.8,0.4,2.3,11.4,2.3,11.4s8.4-3.5,9.3-2.2c0.9,1.2-0.1,9.9-0.1,9.9
		l-3.6,4.2l-67.5-34.8l-7.3-100.7L132.8,42.1z"/>
	<path class="st3" d="M94.1,187.7l-2.3,18.8c-0.2,1.3-1.2,2.2-2.5,2.2c-4.6,0-14.7,0.4-15.5,3.3c-0.9,3.1,23.2,2.9,32,2.7
		c1.8,0,3.3-1.4,3.6-3.2c0.8-7.1,2.7-23.8,2.5-23.8C111.6,187.7,94.1,187.7,94.1,187.7z"/>
	<path class="st3" d="M93.2,124.8l-42.4,17.7c-1.4,0.6-2.1,2.1-1.6,3.6l1.8,5.3c0.4,1.3,1.7,2.1,3.1,1.9l41-5.1
		c1.5-0.2,2.5-1.4,2.5-2.9l-0.4-17.8C97.1,125.4,95,124.1,93.2,124.8z"/>
	<path class="st3" d="M137.1,153.1l72.9,49.9c1.7,1.1,1.8,3.5,0.3,4.9l-2.2,2c-0.9,0.8-2.2,1-3.3,0.6l-81.5-34.2
		c-1.8-0.7-2.4-2.9-1.5-4.5l10.8-17.6C133.6,152.5,135.6,152.1,137.1,153.1z"/>
	<path class="st3" d="M7.4,91.2c0,0,2.2,18.9,14.6,19.7c5.3,0.3,21.9,1.3,38.2,1.1c21.9-0.2,43.8-1.7,43.8-1.7l7-26.9L7.4,91.2z"/>
	<g>
		<ellipse class="st4" cx="36.8" cy="95.7" rx="6.9" ry="10.3"/>
		<ellipse class="st4" cx="23" cy="94.7" rx="6.9" ry="10.3"/>
		<ellipse class="st4" cx="9.3" cy="93.3" rx="6.9" ry="10.3"/>
		<ellipse class="st4" cx="50.5" cy="95.7" rx="6.9" ry="10.3"/>
		<ellipse class="st4" cx="91.7" cy="94.7" rx="6.9" ry="10.3"/>
		<ellipse class="st4" cx="78" cy="95.7" rx="6.9" ry="10.3"/>
		<ellipse class="st4" cx="64.2" cy="96.3" rx="6.9" ry="10.3"/>
	</g>
	<path class="st3" d="M106.6,36.8c-5.5,0-20.4,1.4-25.2,4.4c-4.8,3-27.1,25-34.9,26.6S1.6,77.1,0.6,85.2s2.4,9,11.9,10.1
		c4.2,0.5,25.8,0.8,46.3,0.5c22.7-0.4,44.7-1.9,44.7-1.9s-18.7,47-22.8,57.4c-4.7,11.8-24,43.8,16.5,43.1c1.2,0,2.2,1.1,2.1,2.3
		l-1.4,13.5c0,0-10.6,0.6-13.3,3.7c-3.1,3.5,13.6,4.2,27.8,3.2c2.4-0.2,4.2-2.2,4.1-4.6c-0.3-5.4-0.6-14.3,0.2-16.7
		c1.1-3.4,29.1-7.8,25.7-49.1c-3.4-41.3-8.5-42-5.3-58.2s0.5-44.9-4.1-49.1C128.6,35.2,106.6,36.8,106.6,36.8z"/>
	<path class="st5" d="M85.7,66.1c0,0-3.1,11.7,6.5,14.4c9.6,2.7,22.5,2.1,23.8-9.2s-1.8-19.2-14.5-19C88.7,52.5,85.7,66.1,85.7,66.1
		z"/>
	<path class="st6" d="M100.3,61.7c-2-0.8-5.7,0.4-7.6,4.4c-1.9,4,5.4,8.9,8.6,5.4C104.5,68,103.7,63,100.3,61.7z"/>
	<path class="st0" d="M91.9,123.4c0,0,11.7-0.9,14.3,12.5c2.6,13.5,4.9,60.7-18,57.8c-29.3-3.8-13.2-27.9-7.4-44.4
		C83.7,140.7,91.9,123.4,91.9,123.4z"/>
	<path class="st3" d="M114.3,127.6l2.4,45.9c0.1,1.5,1.3,2.7,2.8,2.7l5.6,0.1c1.4,0,2.5-0.9,2.8-2.2l9-40.4c0.3-1.4-0.5-2.9-1.9-3.3
		l-16.9-5.6C116.2,124.1,114.2,125.6,114.3,127.6z"/>
	<line class="st0" x1="114.6" y1="11" x2="122.1" y2="16.5"/>
	<line class="st0" x1="111.9" y1="23.8" x2="124.6" y2="32.5"/>
</g>
</svg>
