<?xml version="1.0" encoding="utf-8"?>
<!-- Generator: Adobe Illustrator 26.0.3, SVG Export Plug-In . SVG Version: 6.00 Build 0)  -->
<svg version="1.1" id="Layer_1" xmlns="http://www.w3.org/2000/svg" xmlns:xlink="http://www.w3.org/1999/xlink" x="0px" y="0px"
	 viewBox="0 0 189.3 305.2" style="enable-background:new 0 0 189.3 305.2;" xml:space="preserve">
<style type="text/css">
	.st0{fill:#EA6654;stroke:#242B1D;stroke-miterlimit:10;}
	.st1{opacity:0.15;fill:#191610;}
	.st2{fill:#76C0CC;stroke:#2B261C;stroke-miterlimit:10;}
	.st3{fill:#4B82C4;stroke:#2B261C;stroke-miterlimit:10;}
	.st4{fill:#E5E4D3;stroke:#231F20;stroke-miterlimit:10;}
	.st5{fill:#191610;}
	.st6{fill:none;stroke:#191610;stroke-linecap:round;stroke-linejoin:round;stroke-miterlimit:10;}
</style>
<g>
	<path class="st0" d="M124.8,201.1c0,0,7.1-3.4,12.3-4c5.1-0.5,13.6-0.2,16.6,9.7c3.1,9.9,2,16.8-4.5,20.8
		c-4.7,2.9-10.1,4.3-15.5,2.5c-6.1-2-11.1-3.7-13.3-9.8C117.9,213.3,120.4,203.5,124.8,201.1z"/>
	<ellipse class="st1" cx="94.7" cy="291" rx="94.7" ry="14.2"/>
	<g>
		<path class="st2" d="M17,181.7L77.7,127c2-1.6,5-1.1,6.2,1.2l7.8,18c1.1,1.9,0.4,4.3-1.4,5.4l-68.4,43.9c-2.7,1.8-6.3-0.2-6.3-3.5
			l0-7.2C15.5,183.6,16,182.5,17,181.7z"/>
		<path class="st2" d="M166.8,181.7L106.1,127c-2-1.6-5-1.1-6.2,1.2l-7.8,18c-1.1,1.9-0.4,4.3,1.4,5.4l68.4,43.9
			c2.7,1.8,6.3-0.2,6.3-3.5l0-7.2C168.3,183.6,167.7,182.5,166.8,181.7z"/>
	</g>
	<path class="st3" d="M58.6,227.7l-2.5,58.7c-0.1,1.5,1.1,2.8,2.7,2.8h4c1.3,0,2.3-0.9,2.6-2.1l12.1-55.6c0.3-1.4-0.6-2.8-2-3.2
		l-13.6-3.1C60.3,224.9,58.7,226.1,58.6,227.7z"/>
	<path class="st3" d="M125.1,227.7l2.5,58.7c0.1,1.5-1.1,2.8-2.7,2.8h-4c-1.3,0-2.3-0.9-2.6-2.1l-12.1-55.6c-0.3-1.4,0.6-2.8,2-3.2
		l13.6-3.1C123.5,224.9,125.1,226.1,125.1,227.7z"/>
	<path class="st4" d="M130.9,209c-1.4-26.8-17.9-96.5-17.9-96.5l-21.1,3.7l-21.1-3.7c0,0-16.5,69.7-17.9,96.5
		c-1.4,26.8,27.1,38.8,39,38.8S132.2,235.8,130.9,209z"/>
	<path class="st0" d="M89.8,162.5c-4,0.1-14.7,2.9-20.2,21.3s0,29.9,5.7,35.9s16.5,11.1,26.4,4.6c9.8-6.5,13.7-23.8,8.3-40.7
		S95.6,162.4,89.8,162.5z"/>
	<path class="st4" d="M142,0.5c-3.7-0.6-9.4,4.2-10.8,8.8s-10.5,36.9-11.9,41.3c-1.4,4.4-3.9,4.4-6.4,3.4c-2.5-0.9-18.1-6-23.6-5.5
		c-5.5,0.5-17.2,2.1-21.1,3.2c-3.9,1.1-4.8,0.9-6.6-2.1c-1.8-3-7.1-34.2-10.5-41.3s-8.9-8.7-13.3-6.9s-2.8,12.2-1.4,21.3
		c1.4,9.2,9.6,32.6,10.8,41.3s0.5,15.4,0.4,22.5c0,4.6,0.1,10.5,0.6,17.7c1.1,15.8,19.7,24.3,30.7,29.8c11,5.5,14.4,3.7,24.8-1.4
		c10.3-5,23.4-16.1,25.5-20.2c1.3-2.7,2.8-17,3.7-27.6c0.5-5.3,3.3-20.1,4-23.8c0.7-3.7,8-35.3,10.8-47C150.3,2.5,145.7,1.1,142,0.5
		z"/>
	<path class="st5" d="M73.6,80.1c0,0-0.7-3.5-3.2-3.4c-2.5,0.1-4.2,4.9-3.9,6.6c0.3,1.7,0.8,6.3,3.5,5.5C72.8,88.1,74,86,73.6,80.1z
		"/>
	<path class="st5" d="M108.7,77.2c0,0-5.1-1.3-5.5,5.7s2.3,6.7,3.7,6.1c1.7-0.7,3.5-4.6,3.4-6.6C110.2,80.3,110.3,79,108.7,77.2z"/>
	<path class="st5" d="M84.4,119.8c0,0,8.2,1.4,12-2.1c0,0-0.6,3.1-4.5,3.9C88,122.3,84.4,119.8,84.4,119.8z"/>
	<path class="st0" d="M51.2,57.3l4.6-3.4c0,0-10.8-41.6-12.1-43.2s-3.7-1.7-3.7,0.1s2.1,12.5,4.3,22.6S51.2,57.3,51.2,57.3z"/>
	<path class="st0" d="M129.4,60.4l-4.6-3.4c0,0,10.8-41.6,12.1-43.2s3.7-1.7,3.7,0.1s-2.1,12.5-4.3,22.6S129.4,60.4,129.4,60.4z"/>
	<g>
		<path class="st6" d="M114.1,101.5c0,0,19-3.9,26.6-2.1"/>
		<path class="st6" d="M118.6,108.2c0,0,14.2,1.5,19.1,4.8"/>
		<path class="st6" d="M120.6,115.8c0,0,13.3,6.4,15.2,9.2"/>
		<path class="st6" d="M65.8,103.2c0,0-19-3.9-26.6-2.1"/>
		<path class="st6" d="M61.3,110c0,0-14.2,1.5-19.1,4.8"/>
		<path class="st6" d="M59.3,117.5c0,0-13.3,6.4-15.2,9.2"/>
	</g>
	<path class="st0" d="M93.7,93.4c0,0-8.4-0.8-9.8,0.6c-1.4,1.4,3.9,9.3,5.1,9.3C90.4,103.2,96.5,94.4,93.7,93.4z"/>
</g>
</svg>
