<?xml version="1.0" encoding="utf-8"?>
<!-- Generator: Adobe Illustrator 26.0.3, SVG Export Plug-In . SVG Version: 6.00 Build 0)  -->
<svg version="1.1" id="Layer_1" xmlns="http://www.w3.org/2000/svg" xmlns:xlink="http://www.w3.org/1999/xlink" x="0px" y="0px"
	 viewBox="0 0 423.7 567.3" style="enable-background:new 0 0 423.7 567.3;" xml:space="preserve">
<style type="text/css">
	.st0{opacity:0.5;fill:#F7E782;}
	.st1{fill:#655E67;stroke:#000000;stroke-miterlimit:10;}
	.st2{fill:#F7E782;stroke:#000000;stroke-miterlimit:10;}
</style>
<g>
	<polygon class="st0" points="251.4,330.2 167.2,330.2 0,0 211.9,0 423.7,0 	"/>
	<path class="st1" d="M213,566.8h-7.2c-3.6,0-6.5-2.9-6.5-6.5l0,0c0-3.6,2.9-6.5,6.5-6.5h7.2c3.6,0,6.5,2.9,6.5,6.5l0,0
		C219.5,563.9,216.6,566.8,213,566.8z"/>
	<polygon class="st2" points="164.8,347.1 164.8,375.1 164.8,375.1 180.8,411.3 237.8,411.3 253.8,375.1 253.8,375.1 253.8,347.1 	
		"/>
	<path class="st2" d="M227.9,560.4h-37.1c-5.6,0-10.1-4.5-10.1-10.1v-139H238v139C238,555.8,233.5,560.4,227.9,560.4z"/>
	<rect x="180.8" y="529.9" class="st1" width="57.3" height="9.3"/>
	<path class="st1" d="M209.3,369.1L209.3,369.1c-1.4,0-2.6-1.2-2.6-2.6v-17.8c0-1.4,1.2-2.6,2.6-2.6h0c1.4,0,2.6,1.2,2.6,2.6v17.8
		C211.9,368,210.7,369.1,209.3,369.1z"/>
	<path class="st1" d="M230.8,369.1L230.8,369.1c-1.4,0-2.6-1.2-2.6-2.6v-17.8c0-1.4,1.2-2.6,2.6-2.6h0c1.4,0,2.6,1.2,2.6,2.6v17.8
		C233.4,368,232.2,369.1,230.8,369.1z"/>
	<path class="st1" d="M187.8,369.1L187.8,369.1c-1.4,0-2.6-1.2-2.6-2.6v-17.8c0-1.4,1.2-2.6,2.6-2.6h0c1.4,0,2.6,1.2,2.6,2.6v17.8
		C190.4,368,189.2,369.1,187.8,369.1z"/>
	<rect x="180.8" y="411.3" class="st1" width="57.3" height="9.3"/>
	<path class="st1" d="M167.1,328.8h84.4c3.4,0,6.2,2.8,6.2,6.2v9.2c0,3.4-2.8,6.2-6.2,6.2h-84.4c-3.4,0-6.2-2.8-6.2-6.2V335
		C160.8,331.6,163.6,328.8,167.1,328.8z"/>
	<path class="st2" d="M209.3,460.1L209.3,460.1c-5.3,0-9.6-4.3-9.6-9.6v-12.6c0-5.3,4.3-9.6,9.6-9.6h0c5.3,0,9.6,4.3,9.6,9.6v12.6
		C218.9,455.8,214.6,460.1,209.3,460.1z"/>
</g>
</svg>
