<?xml version="1.0" encoding="UTF-8"?>
<svg id="Layer_1" data-name="Layer 1" xmlns="http://www.w3.org/2000/svg" viewBox="0 0 97.34 241.19">
  <defs>
    <style>
      .cls-1 {
        fill: #f4958c;
      }

      .cls-2 {
        fill: #fff;
      }

      .cls-3 {
        fill: #d26d6d;
      }

      .cls-4 {
        fill: #5f72b7;
      }

      .cls-5 {
        opacity: .5;
      }

      .cls-6 {
        fill: none;
        stroke: #fff;
        stroke-linecap: round;
        stroke-miterlimit: 10;
        stroke-width: .99px;
      }

      .cls-7 {
        opacity: .1;
      }

      .cls-7, .cls-8 {
        fill: #362836;
      }

      .cls-9 {
        fill: #f8a79f;
      }

      .cls-10, .cls-11 {
        fill: #314385;
      }

      .cls-11 {
        opacity: .7;
      }

      .cls-12 {
        fill: #bb4781;
      }

      .cls-13 {
        fill: #121523;
        opacity: .3;
      }

      .cls-14 {
        fill: #805e6a;
      }

      .cls-15 {
        fill: #aa5450;
      }
    </style>
  </defs>
  <g>
    <path class="cls-9" d="m63.88,62.97s35.08-5.91,33.4-14.17c-1.68-8.25-28.55-22.18-28.55-22.18l-6.38-4.3-8.58,6.36s8.18,4.57,11.69,3.96l15.53,13.98-21.24,3.97,4.13,12.38Z"/>
    <g>
      <path class="cls-1" d="m67.69,25.91l-5.34-3.59-8.58,6.36s5.08,2.83,8.95,3.74c1.61-2.21,3.32-4.33,4.97-6.51Z"/>
      <path class="cls-1" d="m74.59,53.77c.03-1.81.45-4.04.16-5.98l-15,2.81,4.13,12.38s4.39-.74,10-2.06c.35-2.38.68-4.77.72-7.14Z"/>
    </g>
  </g>
  <g>
    <g>
      <g>
        <path class="cls-9" d="m34.62,34.16s4.31,14.85-1.71,17.4c-6.02,2.55-17.91,3.32-18.13,14.43-.22,11.11,52.84-.59,52.84-.59,0,0,.06-12.44-10.46-13.42-10.52-.97-7.96-2.19-8.73-14.08-.78-11.89-13.8-3.74-13.8-3.74Z"/>
        <path class="cls-1" d="m36.02,45.97c2.26,2.2,4.93,3.87,8.21,4.36,1.93.29,4.03.36,6.13.19-2.37-1.54-1.42-4.73-1.94-12.62-.78-11.89-13.8-3.74-13.8-3.74,0,0,1.92,6.64,1.4,11.81Z"/>
      </g>
      <g>
        <path class="cls-9" d="m35.49,39.24s-10.67-12.37-3.09-23.71c7.58-11.34,18.2-5.6,20.47,1.05,2.27,6.65,9.88,26.36-2.38,28.24-12.26,1.88-15-5.58-15-5.58Z"/>
        <g>
          <path class="cls-15" d="m55.3,1.66l-.92,2.77s-1.32-3.51-4.09-4.43c0,0,1.35,3.92-2.96,4.17-4.31.26-13.35-3.47-17.75,5.71-.55,1.14-1,2.2-1.38,3.18-1.45-.11-3.51.36-4.76,3.45-1.27,3.12-1.03,14.78,12.59,24.34l-2.06-5.53s-1.35,1.01-3.06-1.07c-2.96-3.61-1.39-5.86.43-5.35,1.82.51,2.6,4.42,2.6,4.42l2.13-.77-1.81-7.03c2.67-2.48.7-6.97.7-6.97,0,0,9.87,3.06,16.76-1.01,10.39-6.13,3.58-15.87,3.58-15.87Z"/>
          <path class="cls-9" d="m35.04,38.07s-3.99.52-5.52-4.82c-1.52-5.34,1.9-6.16,3.37-2.93s2.15,7.76,2.15,7.76Z"/>
        </g>
      </g>
    </g>
    <g>
      <g>
        <g>
          <path class="cls-3" d="m34.03,36.6c-1.61-.25-2.89-1.49-1.07-2.64,0,0-.17.38-.17.38-.19-.55-1.22-5.63-1.96-3.73-.22.57-.3,1.26-.36,1.93-.18-.82-.38-1.82.08-2.64,1.83-1.9,2.83,3.41,2.97,4.55-.26.17-.65.34-.8.56-.41.66.79,1.24,1.31,1.59h0Z"/>
          <path class="cls-3" d="m51.32,34.72c.67-.86,1.42-1.62,2.22-2.35,0,0-.2.74-.2.74-1.87-3.18-3.38-6.58-4-10.23,2.46,3.01,4.1,6.57,5.27,10.26-1.05.61-2.13,1.17-3.29,1.58h0Z"/>
        </g>
        <path class="cls-2" d="m43.38,36.59l12.58-1.31s-5,6.55-12.58,1.31Z"/>
      </g>
      <g>
        <g>
          <polygon class="cls-8" points="24.04 25.93 35.05 23.09 36.59 28.34 26.88 31.6 24.04 25.93"/>
          <path class="cls-8" d="m34.09,4.75s8.08,3.3,9.95,11.24l4.84-1.75s-2.97-9.48-8.43-10.69c0,0-3.32-.38-6.71,1.24"/>
        </g>
        <g>
          <path class="cls-8" d="m63.63,23.12c.51,2.92-1.44,5.71-4.37,6.23l-18.88,3.77c-2.92.51-5.71-1.44-6.23-4.37l-1.07-6.09c-.51-2.92,1.44-5.71,4.37-6.23l18.88-3.77c2.92-.51,5.71,1.44,6.23,4.37l1.07,6.09Z"/>
          <path class="cls-14" d="m63.68,22.02c.47,2.65-1.31,5.18-3.96,5.65l-16.5,3.35c-2.65.47-5.18-1.31-5.65-3.96l-.97-5.53c-.47-2.65,1.31-5.18,3.96-5.65l16.5-3.35c2.65-.47,5.18,1.31,5.65,3.96l.97,5.53Z"/>
          <g class="cls-5">
            <path class="cls-8" d="m57.91,16.91c.17,0,.37.12.41.35l.97,5.53c.02.11,0,.22-.07.32-.07.1-.16.15-.27.17h-.06s-.06.02-.06.02l-16.41,3.34s-.03,0-.05,0c-.17,0-.37-.12-.41-.35l-.97-5.53c-.02-.11,0-.22.07-.32s.16-.15.27-.17h.06s.06-.02.06-.02l16.41-3.34s.03,0,.05,0m0-4.45c-.28,0-.56.02-.85.07l-16.5,3.35c-2.65.47-4.43,2.99-3.96,5.65l.97,5.53c.42,2.37,2.47,4.04,4.8,4.04.28,0,.56-.02.85-.07l16.5-3.35c2.65-.47,4.43-2.99,3.96-5.65l-.97-5.53c-.42-2.37-2.47-4.04-4.8-4.04h0Z"/>
          </g>
        </g>
      </g>
    </g>
  </g>
  <g>
    <g>
      <g>
        <path class="cls-8" d="m58.67,222.91l.65,14.38s38,10.77,7.92-3.99l-.28-19.35-8.29,8.95Z"/>
        <path class="cls-13" d="m62.09,233.44c-.96,0-1.87-.03-2.95-.21l-.47-10.32,8.29-8.95.27,18.64c-1.66.62-3.38.85-5.15.84Z"/>
        <path class="cls-2" d="m78.54,239.92c3.49,3.9-19.25-2.47-19.25-2.47l-.04-.83c1.81.5,18.21,5.01,19.29,3.3Z"/>
        <path class="cls-6" d="m67.83,233.25s-1.9-.04-2.75,1.16"/>
        <path class="cls-6" d="m69.36,234.16s-1.9-.04-2.75,1.16"/>
        <path class="cls-6" d="m71.09,235.11s-1.9-.04-2.75,1.16"/>
      </g>
      <g>
        <path class="cls-8" d="m34.66,222.37l-1.45,14.33s-38.54,8.75-7.69-4.4l1.35-19.3,7.79,9.37Z"/>
        <path class="cls-13" d="m30.66,232.7c.96.05,1.87.07,2.96-.06l1.04-10.28-7.79-9.37-1.3,18.6c1.62.71,3.33,1.02,5.09,1.11Z"/>
        <path class="cls-2" d="m13.87,238.3c-3.7,3.71,19.36-1.45,19.36-1.45l.08-.83c-1.84.41-18.46,4.04-19.44,2.28Z"/>
        <path class="cls-6" d="m24.94,232.2s1.9.06,2.68,1.3"/>
        <path class="cls-6" d="m23.35,233.03s1.9.06,2.68,1.3"/>
        <path class="cls-6" d="m21.58,233.89s1.9.06,2.68,1.3"/>
      </g>
    </g>
    <g>
      <g>
        <path class="cls-12" d="m65.82,107.1s5.94,68.68,2.88,124.04c0,0-7.85,2.56-10.26.42-1.76-13.19-1.45-38.66-4.1-57.76-2.5-17.98-5.28-39.25-5.28-39.25l-1.55.21s-10.87,89.6-12.46,96.13c-8.18,1.86-10.91-1.67-10.91-1.67,0,0,3.21-105.34,5.96-122.75,3.6-22.82,35.74.63,35.74.63Z"/>
        <path class="cls-7" d="m67.42,129.78c1.5,24.83,3.24,65.84,1.28,101.37,0,0-7.85,2.56-10.26.42-1.76-13.19-1.45-38.66-4.1-57.76-2.34-16.81-4.92-36.49-5.24-38.98,6.41-.77,12.63-2.27,18.34-5.05Z"/>
      </g>
      <g>
        <path class="cls-8" d="m59.43,103.03c3.79,2.18,6.38,4.07,6.38,4.07,0,0,.35,4.07.84,11-1.53.45-3.68,1.03-6.28,1.59-.27-5.56-.56-11.11-.95-16.67Z"/>
        <path class="cls-8" d="m39.48,96.55c5.09-.41,11.3,1.96,16.41,4.56.47,6.41.8,12.83,1.11,19.25-5.21.92-11.63,1.6-18.35,1.22.23-8.34.58-16.68.83-25.02Z"/>
        <path class="cls-8" d="m35.25,121.29c-2.15-.24-4.31-.6-6.47-1.1.43-6.2.87-11.01,1.3-13.7.8-5.07,3.01-7.85,5.97-9.12-.25,7.97-.57,15.95-.8,23.92Z"/>
      </g>
    </g>
  </g>
  <g>
    <g>
      <g>
        <path class="cls-4" d="m31.69,51.3s4.63,7.48,13.29,7.26c7.34-.19,10.35-7.24,10.35-7.24,0,0,8.5-5.88,10.31-1.84,1.81,4.05-1.58,16.56-1.58,16.56,0,0,5.02,41.78,4.8,51.75,0,0-26.84,3.75-41.21.42,0,0-1.85-46.11-5.98-63.03l10.02-3.9Z"/>
        <path class="cls-11" d="m24.16,70.61c2.39,20.3,3.48,47.61,3.48,47.61,14.37,3.33,41.21-.42,41.21-.42.09-4-.67-13.12-1.61-22.6-16.11-4.12-31.47-12.34-43.09-24.59Z"/>
      </g>
      <path class="cls-10" d="m72,46.91c-5.44-.24-9.42.7-12.12,1.77,1.3,4.57,3.41,12.43,4.59,19.05l7.19-.7c1.55-6.96.34-20.12.34-20.12Z"/>
    </g>
    <g>
      <g>
        <path class="cls-9" d="m14.67,61.46S-1.46,87.08.11,91.45c1.56,4.38,22.65,23.92,25.79,23.74,3.14-.18,3.18-4.12,3.18-4.12,0,0,13.12,8.97.43-1.6,0,0,17.05,8.74.64-2.66,0,0,15.92,2.77-.63-1.8,0,0,12.26-1.49-1.63-.96l-1.87,4.05-13.59-17.08,16.88-21.72-14.63-7.83Z"/>
        <path class="cls-1" d="m16.69,85.52l12.61-16.23-14.63-7.83s-5.02,7.97-9.19,15.78c3.18,3.45,7.04,6.09,11.21,8.27Z"/>
      </g>
      <path class="cls-4" d="m31.69,51.3s-11.14,2.74-14.14,5.28c-3.01,2.54-11.76,14.86-11.76,14.86,0,0,9.99,9.41,16.46,12.19l10.31-12.67-.86-19.65Z"/>
    </g>
  </g>
</svg>