<?xml version="1.0" encoding="UTF-8"?>
<svg id="Layer_1" data-name="Layer 1" xmlns="http://www.w3.org/2000/svg" viewBox="0 0 118.17 212.2">
  <defs>
    <style>
      .cls-1, .cls-2 {
        fill: #f4958c;
      }

      .cls-3 {
        fill: #d26d6d;
      }

      .cls-4, .cls-2 {
        opacity: .5;
      }

      .cls-5 {
        opacity: .6;
      }

      .cls-6 {
        fill: #8f3063;
      }

      .cls-7 {
        fill: #bb4781;
      }

      .cls-8 {
        fill: #fbb261;
      }

      .cls-9 {
        fill: #1e161e;
      }

      .cls-10 {
        fill: #fac1b8;
      }

      .cls-11 {
        fill: #362836;
      }

      .cls-12 {
        fill: #805e6a;
      }
    </style>
  </defs>
  <g>
    <g>
      <path class="cls-9" d="m34.69,94.58s-10.92,12.6-13.44,51.24c-2.52,38.64-2.52,59.81-2.52,59.81l6.05,1.68s18.31-36.12,14.95-49.39c0,0,19.82-36.29,18.14-48.55-1.68-12.26-23.18-14.78-23.18-14.78Z"/>
      <g>
        <path class="cls-11" d="m77.06,205.28s10.72-41.06-2.72-56.44c0,0,17.81-35.62-.86-62.75-1.17-1.7-2.89-2.21-4.21-2.49l.03-.31-25.99-3.92.18.6c-1.75.51-4.95,10.42-7.11,12.75-4.74,5.12-8.06,14.11-9.07,17.98,8.44,8.13,16.43,12.72,24.56,16.56.1.26.15.41.14.41.58,7.72,1.64,17.53,3.19,25.03,4.51,21.79,12.32,41.76,17.88,55.16,0,0,24.85,8.78,3.99-2.59Z"/>
        <path class="cls-9" d="m77.06,205.28s3.22-13.75,3.92-26.88c-2.06-.26-4.14-.32-6.23-.12-3.97.4-7.72,1.64-11.32,3.29,3.3,9.23,6.77,19.38,9.64,26.3,0,0,24.85,8.78,3.99-2.59Z"/>
        <g class="cls-5">
          <path class="cls-9" d="m77.92,98.19c-1.24-1.91-2.71-3.71-4.44-5.37-1.49-1.43-2.89-2.21-4.21-2.49l.03-.31-25.99-3.92.18.6c-1.75.51-3.69,1.82-5.86,4.16-1.59,1.72-2.93,3.64-4.06,5.72,8.41,3.17,23.71,6.61,44.36,1.61Z"/>
        </g>
      </g>
    </g>
    <g>
      <g>
        <path class="cls-7" d="m18.2,178.66c6.56-2.67,18.94,4.28,18.94,4.28l-11.33,24.67s-27.66,11.28-8.5-2.9l.9-26.05Z"/>
        <path class="cls-11" d="m10.51,211.26c-.64,2.68,15.16-3.25,15.16-3.25l.25-.58c-3.56,1.28-13.39,4.68-15.41,3.83Z"/>
      </g>
      <g>
        <path class="cls-7" d="m81.31,181.27c-7.14-4.03-18.4,1.85-18.4,1.85l10.39,25.96s29.6,9.12,6.68-3.84l1.33-23.97Z"/>
        <path class="cls-11" d="m88.65,211.42c.82,2.64-15.35-2.35-15.35-2.35l-.29-.56c3.64,1.07,13.69,3.88,15.63,2.91Z"/>
      </g>
    </g>
  </g>
  <g>
    <g>
      <g>
        <polygon class="cls-1" points="53.1 39.43 54.34 49.98 66.69 50.48 65.11 33.6 53.1 39.43"/>
        <g>
          <path class="cls-8" d="m68.12,5.38s-3.36-8.4-16.3-4.2c-12.94,4.2-12.94,21.17-12.1,31.08.84,9.91-11.26,11.76-2.02,19.32,9.24,7.56,18.98,2.18,17.64-9.58-1.05-9.2,12.77-36.62,12.77-36.62Z"/>
          <path class="cls-10" d="m45.98,15.83c-4.6,8.33-2.18,22,4.83,24.7,9.38,3.61,23.96-7,18.47-24.57-7.77-.13-15.53-.22-23.3-.13Z"/>
        </g>
        <g>
          <path class="cls-8" d="m74.9,9.26c-2.75-5.48-5.97-5.1-7.31-4.63-.86,1.61-1.78,3.19-2.4,4.92-.46,1.29-.9,2.57-1.49,3.78-1.6,6.98,2.48,6.82,2.48,6.82-2.54,5.63-1.15,6.41-1.15,6.41,0,0,2.08-.31,3.16-3.72,1.3-4.13,5.11-1.76,3.72,2.44-1.77,5.37-4.19,3.28-4.19,3.28-.85,4.7-2.79,8.06-2.79,8.06,8.15-3.61,13.53-20.23,9.96-27.34Z"/>
          <path class="cls-8" d="m69.97,31.42l-2.24-2.87s-4.81,3.71-3.97,12.95c.84,9.24,7.73,2.86,15.46,6.22,0,0,6.89-5.54,3.02-9.24s-9.24-3.7-7.06-16.97c2.18-13.27-1.18.34-1.18.34l-3.36,9.41-.67.17Z"/>
        </g>
      </g>
      <g>
        <g>
          <path class="cls-3" d="m57.34,32.08c-1.39,3.24-6.69,4.15-8.19.54,2.9,1.4,5.24.65,8.19-.54h0Z"/>
          <path class="cls-3" d="m50.49,30.36c-1.34-.46-2.3-1.09-3.46-1.65,1.06-1.05,2.18-2.22,3.19-3.32.28-.3.56-.62.89-.95.14.92-.12,1.84-.55,2.65-.44.8-1.07,1.49-1.81,2l-.06-1.2c.81.65,1.44,1.47,1.8,2.47h0Z"/>
        </g>
        <g>
          <path class="cls-10" d="m66.82,27.55s.66-7.37,4.01-7.76c3.35-.39,1.56,11.08-3.35,9.2-4.91-1.88-.66-1.44-.66-1.44Z"/>
          <path class="cls-3" d="m69.3,28.23c.15-.31.46-.96.2-1.19-.14-.09-.62-.17-1.07-.15l-.62.02c.18-2.12.36-4.61,2.19-6.04,1.12-.65,2.35.39,2,1.53-.09.39-.26.73-.48,1.03-.01-.37-.05-.73-.13-1.04-.73-2.3-1.96,3.3-2.24,3.96,0,0-.57-.76-.57-.76,1.64.27,2.51,1.76.72,2.64h0Z"/>
        </g>
      </g>
    </g>
    <g>
      <g>
        <polygon class="cls-11" points="76.86 16.84 67.48 16.96 67.38 21.47 75.83 21.97 76.86 16.84"/>
        <path class="cls-11" d="m66.55,2.26s-8.76,4.27-9.94,12.6l-5.14-1.35s1.63-10.23,9.18-12.96c0,0,3.09-.92,5.89,1.7"/>
      </g>
      <g>
        <path class="cls-11" d="m37.72,22.19c-.02,3.06,2.44,5.56,5.51,5.58l19.84.61c3.06.02,5.56-2.44,5.58-5.51l.05-6.38c.02-3.06-2.44-5.56-5.51-5.58l-19.84-.61c-3.06-.02-5.56,2.44-5.58,5.51l-.05,6.38Z"/>
        <path class="cls-12" d="m37.47,21.08c-.02,2.78,2.22,5.05,4.99,5.07l17.35.59c2.78.02,5.05-2.22,5.07-4.99l.04-5.79c.02-2.78-2.22-5.05-4.99-5.07l-17.35-.59c-2.78-.02-5.05,2.22-5.07,4.99l-.04,5.79Z"/>
        <g class="cls-4">
          <path class="cls-11" d="m42.52,15.04l17.25.59h.06s.06,0,.06,0c.16,0,.29.13.29.29l-.04,5.79c0,.15-.12.28-.27.29l-17.25-.59h-.06s-.06,0-.06,0c-.03,0-.12,0-.21-.09-.08-.09-.08-.17-.08-.21l.04-5.79c0-.15.12-.28.27-.29m.02-4.74c-2.76,0-5.01,2.23-5.03,5l-.04,5.79c-.02,2.78,2.22,5.05,4.99,5.07l17.35.59s.02,0,.04,0c2.76,0,5.01-2.23,5.03-5l.04-5.79c.02-2.78-2.22-5.05-4.99-5.07l-17.35-.59s-.02,0-.04,0h0Z"/>
        </g>
      </g>
    </g>
  </g>
  <g>
    <g>
      <g>
        <g>
          <path class="cls-10" d="m55.61,59.87s-30.14,15.99-37.96,13.72c-7.53-2.19-24.55-46.19-14.62-30.51,0,0-2.99-14.74,1.93-1.4,0,0-2.67-12.92,1.67-.29,0,0-.53-10.12,2.73,2.27l11.98,17.24s30.46-17.26,33.54-12.65c3.08,4.62.74,11.61.74,11.61Z"/>
          <path class="cls-10" d="m9.16,46.38c5.36-7.71,4.57-7.13-1.07-2.75-4.7,3.65,1.07,2.75,1.07,2.75Z"/>
        </g>
        <path class="cls-2" d="m54.87,48.25c-2.13-3.2-17.37,4.09-26.56,8.88.06,4.64.42,9.92,2.52,13.95,11.27-4.06,24.77-11.21,24.77-11.21,0,0,2.34-6.99-.74-11.61Z"/>
      </g>
      <path class="cls-6" d="m31.01,53.68s-1.26,11.84,4.54,17.89l17.39-5.8-.5-19.66s-8.82,0-21.42,7.56Z"/>
    </g>
    <g>
      <g>
        <path class="cls-7" d="m33.78,95s23.18,8.06,44.35,2.02l-4.03-15.62s16.13-27.72,6.05-33.26c-10.08-5.54-34.52-5.8-40.32,5.54-4.86,9.51-5.04,18.65.5,22.68l1.51,5.04s-6.05,6.55-8.06,13.61Z"/>
        <polygon class="cls-7" points="52.43 46.12 51.67 42.59 67.54 40.32 67.04 47.38 52.43 46.12"/>
      </g>
      <path class="cls-6" d="m82.66,61.11c-.77-.23-1.53-.47-2.3-.72-6.95,6.25-15.49,10.64-24.25,13.79-4.89,1.76-10.02,3.41-15.19,4.14l.92,3.08s-6.05,6.55-8.06,13.61c0,0,23.76,9.49,46.27,1.09l-5.95-14.7s6.29-10.82,8.56-20.29Z"/>
    </g>
    <g>
      <g>
        <g>
          <path class="cls-10" d="m73.93,62.78s8.94,22.82,12.6,25.06c4.93,3.01,40.43,10.68,24.43,3.94,0,0,14.79,2.72,1.37-1.95,0,0,12.97,2.43.25-1.67,0,0,11.43,1.51-1.02-1.52l-18.81-8.03s-5.76-22.96-10.44-25.95c-4.67-2.99-8.38,10.12-8.38,10.12Z"/>
          <path class="cls-10" d="m110.99,88.23s6.18-4.86,2.76.13c-3.43,4.99-2.76-.13-2.76-.13Z"/>
        </g>
        <path class="cls-2" d="m83.9,71.24c1.94-.64,4.22-1.47,5.91-2.85-2.09-6.54-4.96-14.11-7.5-15.74-4.67-2.99-8.38,10.12-8.38,10.12,0,0,1.82,4.65,4.15,9.95,1.96-.41,3.92-.86,5.82-1.49Z"/>
      </g>
      <path class="cls-7" d="m76.12,71.53s8.88-1.11,14.59-5.74c0,0-5.39-18.64-14.17-18.09-8.78.56-.41,23.82-.41,23.82Z"/>
    </g>
    <path class="cls-8" d="m82.23,38.47c-3.69-3.53-8.75-3.7-7.3-15.27-.39-.23-.78-.45-1.18-.67l-3.11,8.72-.67.17-2.24-2.87s-4.81,3.71-3.97,12.95c.84,9.24,7.73,2.86,15.46,6.22,0,0,6.89-5.54,3.02-9.24Z"/>
  </g>
</svg>