<?xml version="1.0" encoding="UTF-8"?>
<svg id="Layer_1" data-name="Layer 1" xmlns="http://www.w3.org/2000/svg" viewBox="0 0 296.08 35.73">
  <defs>
    <style>
      .cls-1 {
        fill: #ba4781;
      }

      .cls-2 {
        fill: #fff;
      }
    </style>
  </defs>
  <rect class="cls-1" width="296.08" height="35.73" rx="6.66" ry="6.66"/>
  <g>
    <path class="cls-2" d="m11.46,24.12c-.1-.11-.16-.23-.16-.37v-13.65c0-.15.05-.28.16-.38s.23-.15.37-.15h6.4c1.76,0,3.08.36,3.94,1.08.86.72,1.29,1.75,1.29,3.08,0,.7-.18,1.29-.54,1.77-.36.48-.76.84-1.21,1.06.57.27,1.06.69,1.45,1.28.39.59.59,1.25.59,1.97,0,1.4-.46,2.49-1.39,3.28-.92.78-2.24,1.18-3.95,1.18h-6.59c-.14,0-.26-.05-.37-.16Zm6.35-8.71c.56,0,.99-.14,1.28-.43.29-.29.44-.67.44-1.14s-.15-.83-.44-1.11c-.29-.28-.72-.42-1.28-.42h-2.73v3.11h2.73Zm.19,6.13c.57,0,1.02-.17,1.34-.5.32-.34.48-.74.48-1.22,0-.5-.16-.92-.48-1.25-.32-.33-.77-.49-1.34-.49h-2.92v3.46h2.92Z"/>
    <path class="cls-2" d="m25.98,11.63c-.1-.1-.15-.22-.15-.38v-1.89c0-.15.05-.28.15-.38.1-.1.22-.15.38-.15h2.52c.15,0,.28.05.38.15.1.1.15.22.15.38v1.89c0,.15-.05.28-.15.38-.1.1-.22.15-.38.15h-2.52c-.15,0-.28-.05-.38-.15Zm.02,12.49c-.1-.1-.15-.22-.15-.38v-9.87c0-.15.05-.28.15-.38.1-.1.22-.15.38-.15h2.48c.15,0,.28.05.38.15.1.1.15.22.15.38v9.87c0,.14-.05.26-.15.37-.1.1-.22.16-.38.16h-2.48c-.15,0-.28-.05-.38-.15Z"/>
    <path class="cls-2" d="m33.02,23.24c-.94-.83-1.45-1.99-1.53-3.49-.01-.18-.02-.5-.02-.95s0-.76.02-.95c.08-1.48.61-2.64,1.58-3.48.97-.83,2.29-1.25,3.97-1.25s3.02.42,3.99,1.25c.97.83,1.49,1.99,1.58,3.48.01.18.02.5.02.95s0,.76-.02.95c-.08,1.5-.6,2.66-1.53,3.49-.94.83-2.28,1.24-4.03,1.24s-3.07-.41-4.01-1.24Zm5.38-1.88c.29-.37.46-.94.5-1.71.01-.14.02-.42.02-.84s0-.7-.02-.84c-.04-.76-.21-1.32-.51-1.7-.3-.38-.75-.57-1.35-.57-1.16,0-1.78.76-1.85,2.27l-.02.84.02.84c.03.77.19,1.34.49,1.71.3.37.75.56,1.35.56s1.07-.19,1.37-.56Z"/>
    <path class="cls-2" d="m45.76,23.12c-.97-.91-1.47-2.23-1.51-3.97v-.74c.06-1.65.57-2.94,1.54-3.87s2.28-1.4,3.92-1.4c1.19,0,2.19.24,3.01.72.82.48,1.44,1.14,1.85,1.98.41.84.62,1.81.62,2.9v.5c0,.14-.05.26-.15.37-.1.1-.22.16-.38.16h-6.72v.15c.03.66.19,1.19.48,1.6s.72.61,1.28.61c.35,0,.64-.07.86-.22.22-.15.43-.33.61-.54.13-.15.23-.25.3-.28.08-.03.2-.05.37-.05h2.6c.13,0,.23.04.33.12.09.08.14.18.14.3,0,.36-.21.79-.62,1.26-.41.48-1.01.89-1.8,1.24-.78.35-1.71.53-2.77.53-1.68,0-3-.46-3.97-1.37Zm5.73-5.42v-.04c0-.69-.16-1.23-.47-1.63-.31-.4-.75-.6-1.31-.6s-.98.2-1.29.6c-.31.4-.47.94-.47,1.63v.04h3.55Z"/>
    <path class="cls-2" d="m57.31,24.13c-.1-.1-.15-.22-.15-.38v-9.87c0-.15.05-.28.15-.38.1-.1.22-.15.38-.15h2.42c.15,0,.28.05.39.15.1.1.16.22.16.38v.8c.38-.46.86-.83,1.46-1.11.59-.28,1.27-.42,2.03-.42,1.23,0,2.23.42,3,1.25.77.83,1.16,2,1.16,3.5v5.86c0,.14-.05.26-.15.37-.1.1-.22.16-.38.16h-2.65c-.14,0-.26-.05-.37-.16-.1-.11-.16-.23-.16-.37v-5.73c0-.66-.16-1.17-.48-1.52-.32-.36-.78-.54-1.39-.54s-1.05.18-1.39.54c-.34.36-.5.86-.5,1.52v5.73c0,.14-.05.26-.15.37-.1.1-.22.16-.38.16h-2.62c-.15,0-.28-.05-.38-.15Z"/>
    <path class="cls-2" d="m72.79,28.24c-.83-.43-1.42-.93-1.77-1.49-.36-.56-.54-1.03-.54-1.41,0-.13.06-.24.17-.34.11-.1.24-.15.38-.15h2.67c.14,0,.25.03.33.09.08.06.15.17.22.33.14.32.33.58.57.77.24.19.61.28,1.11.28.64,0,1.12-.16,1.43-.47.31-.32.46-.84.46-1.59v-1.41c-.71.78-1.74,1.18-3.07,1.18-1.41,0-2.5-.42-3.24-1.25s-1.16-2.04-1.23-3.62l-.02-.57c0-1.69.38-3.03,1.13-4,.76-.97,1.88-1.46,3.36-1.46.71,0,1.34.14,1.89.41.55.27,1.01.64,1.39,1.1v-.78c0-.15.05-.28.16-.38.1-.1.23-.15.37-.15h2.42c.15,0,.28.05.39.16.1.11.16.23.16.37v10.1c0,1.6-.48,2.81-1.43,3.65-.95.84-2.3,1.26-4.05,1.26-1.33,0-2.41-.22-3.23-.65Zm4.49-7.51c.31-.39.48-.87.52-1.46.01-.1.02-.32.02-.65s0-.53-.02-.63c-.03-.59-.2-1.07-.51-1.46-.31-.38-.79-.58-1.42-.58s-1.13.2-1.43.59c-.29.39-.46.93-.48,1.62l-.02.46c0,.83.14,1.48.42,1.96.28.48.78.72,1.51.72.63,0,1.1-.19,1.41-.58Z"/>
    <path class="cls-2" d="m84.11,11.63c-.1-.1-.15-.22-.15-.38v-1.89c0-.15.05-.28.15-.38.1-.1.22-.15.38-.15h2.52c.15,0,.28.05.38.15.1.1.15.22.15.38v1.89c0,.15-.05.28-.15.38-.1.1-.22.15-.38.15h-2.52c-.15,0-.28-.05-.38-.15Zm.02,12.49c-.1-.1-.15-.22-.15-.38v-9.87c0-.15.05-.28.15-.38.1-.1.22-.15.38-.15h2.48c.15,0,.28.05.38.15.1.1.15.22.15.38v9.87c0,.14-.05.26-.15.37-.1.1-.22.16-.38.16h-2.48c-.15,0-.28-.05-.38-.15Z"/>
    <path class="cls-2" d="m90.14,24.13c-.1-.1-.15-.22-.15-.38v-9.87c0-.15.05-.28.15-.38.1-.1.22-.15.38-.15h2.42c.15,0,.28.05.39.15.1.1.16.22.16.38v.8c.38-.46.86-.83,1.46-1.11.59-.28,1.27-.42,2.03-.42,1.23,0,2.23.42,3,1.25.77.83,1.16,2,1.16,3.5v5.86c0,.14-.05.26-.15.37-.1.1-.22.16-.38.16h-2.65c-.14,0-.26-.05-.37-.16-.1-.11-.16-.23-.16-.37v-5.73c0-.66-.16-1.17-.48-1.52-.32-.36-.78-.54-1.39-.54s-1.05.18-1.39.54c-.34.36-.5.86-.5,1.52v5.73c0,.14-.05.26-.15.37-.1.1-.22.16-.38.16h-2.62c-.15,0-.28-.05-.38-.15Z"/>
    <path class="cls-2" d="m104.56,23.12c-.97-.91-1.47-2.23-1.51-3.97v-.74c.06-1.65.57-2.94,1.54-3.87s2.28-1.4,3.92-1.4c1.19,0,2.19.24,3.01.72.82.48,1.44,1.14,1.85,1.98.41.84.62,1.81.62,2.9v.5c0,.14-.05.26-.15.37-.1.1-.22.16-.38.16h-6.72v.15c.03.66.19,1.19.48,1.6s.72.61,1.28.61c.35,0,.64-.07.86-.22.22-.15.43-.33.61-.54.13-.15.23-.25.3-.28.08-.03.2-.05.37-.05h2.6c.13,0,.23.04.33.12.09.08.14.18.14.3,0,.36-.21.79-.62,1.26-.41.48-1.01.89-1.8,1.24-.78.35-1.71.53-2.77.53-1.68,0-3-.46-3.97-1.37Zm5.73-5.42v-.04c0-.69-.16-1.23-.47-1.63-.31-.4-.75-.6-1.31-.6s-.98.2-1.29.6c-.31.4-.47.94-.47,1.63v.04h3.55Z"/>
    <path class="cls-2" d="m117.04,23.12c-.97-.91-1.47-2.23-1.51-3.97v-.74c.06-1.65.57-2.94,1.54-3.87s2.28-1.4,3.92-1.4c1.19,0,2.19.24,3.01.72.82.48,1.44,1.14,1.85,1.98.41.84.62,1.81.62,2.9v.5c0,.14-.05.26-.15.37-.1.1-.22.16-.38.16h-6.72v.15c.03.66.19,1.19.48,1.6s.72.61,1.28.61c.35,0,.64-.07.86-.22.22-.15.43-.33.61-.54.13-.15.23-.25.3-.28.08-.03.2-.05.37-.05h2.6c.13,0,.23.04.33.12.09.08.14.18.14.3,0,.36-.21.79-.62,1.26-.41.48-1.01.89-1.8,1.24-.78.35-1.71.53-2.77.53-1.68,0-3-.46-3.97-1.37Zm5.73-5.42v-.04c0-.69-.16-1.23-.47-1.63-.31-.4-.75-.6-1.31-.6s-.98.2-1.29.6c-.31.4-.47.94-.47,1.63v.04h3.55Z"/>
    <path class="cls-2" d="m128.59,24.13c-.1-.1-.15-.22-.15-.38v-9.87c0-.15.05-.28.15-.38.1-.1.22-.15.38-.15h2.42c.15,0,.28.05.39.16.1.11.16.23.16.37v.84c.77-.91,1.81-1.37,3.11-1.37h.92c.15,0,.28.05.38.15.1.1.15.22.15.38v2.16c0,.14-.05.26-.15.37-.1.1-.22.16-.38.16h-2.04c-.57,0-1.02.16-1.33.47-.32.31-.47.76-.47,1.33v5.38c0,.15-.05.28-.16.38-.1.1-.23.15-.39.15h-2.6c-.15,0-.28-.05-.38-.15Z"/>
    <path class="cls-2" d="m138.1,11.63c-.1-.1-.15-.22-.15-.38v-1.89c0-.15.05-.28.15-.38.1-.1.22-.15.38-.15h2.52c.15,0,.28.05.38.15.1.1.15.22.15.38v1.89c0,.15-.05.28-.15.38-.1.1-.22.15-.38.15h-2.52c-.15,0-.28-.05-.38-.15Zm.02,12.49c-.1-.1-.15-.22-.15-.38v-9.87c0-.15.05-.28.15-.38.1-.1.22-.15.38-.15h2.48c.15,0,.28.05.38.15.1.1.15.22.15.38v9.87c0,.14-.05.26-.15.37-.1.1-.22.16-.38.16h-2.48c-.15,0-.28-.05-.38-.15Z"/>
    <path class="cls-2" d="m144.13,24.13c-.1-.1-.15-.22-.15-.38v-9.87c0-.15.05-.28.15-.38.1-.1.22-.15.38-.15h2.42c.15,0,.28.05.39.15.1.1.16.22.16.38v.8c.38-.46.86-.83,1.46-1.11.59-.28,1.27-.42,2.03-.42,1.23,0,2.23.42,3,1.25.77.83,1.16,2,1.16,3.5v5.86c0,.14-.05.26-.15.37-.1.1-.22.16-.38.16h-2.65c-.14,0-.26-.05-.37-.16-.1-.11-.16-.23-.16-.37v-5.73c0-.66-.16-1.17-.48-1.52-.32-.36-.78-.54-1.39-.54s-1.05.18-1.39.54c-.34.36-.5.86-.5,1.52v5.73c0,.14-.05.26-.15.37-.1.1-.22.16-.38.16h-2.62c-.15,0-.28-.05-.38-.15Z"/>
    <path class="cls-2" d="m159.6,28.24c-.83-.43-1.42-.93-1.77-1.49-.36-.56-.54-1.03-.54-1.41,0-.13.06-.24.17-.34.11-.1.24-.15.38-.15h2.67c.14,0,.25.03.33.09.08.06.15.17.22.33.14.32.33.58.57.77.24.19.61.28,1.11.28.64,0,1.12-.16,1.43-.47.31-.32.46-.84.46-1.59v-1.41c-.71.78-1.74,1.18-3.07,1.18-1.41,0-2.5-.42-3.24-1.25s-1.16-2.04-1.23-3.62l-.02-.57c0-1.69.38-3.03,1.13-4,.76-.97,1.88-1.46,3.36-1.46.71,0,1.34.14,1.89.41.55.27,1.01.64,1.39,1.1v-.78c0-.15.05-.28.16-.38.1-.1.23-.15.37-.15h2.42c.15,0,.28.05.39.16.1.11.16.23.16.37v10.1c0,1.6-.48,2.81-1.43,3.65-.95.84-2.3,1.26-4.05,1.26-1.33,0-2.41-.22-3.23-.65Zm4.49-7.51c.31-.39.48-.87.52-1.46.01-.1.02-.32.02-.65s0-.53-.02-.63c-.03-.59-.2-1.07-.51-1.46-.31-.38-.79-.58-1.42-.58s-1.13.2-1.43.59c-.29.39-.46.93-.48,1.62l-.02.46c0,.83.14,1.48.42,1.96.28.48.78.72,1.51.72.63,0,1.1-.19,1.41-.58Z"/>
    <path class="cls-2" d="m176.09,20.14v-4.03h-1.64c-.15,0-.28-.05-.39-.15-.1-.1-.16-.22-.16-.38v-1.7c0-.15.05-.28.16-.38.11-.1.23-.15.39-.15h1.64v-3.46c0-.15.05-.28.16-.38.1-.1.23-.15.37-.15h2.44c.15,0,.28.05.38.15.1.1.15.22.15.38v3.46h2.62c.15,0,.28.05.39.15.1.1.16.22.16.38v1.7c0,.15-.05.28-.16.38-.11.1-.23.15-.39.15h-2.62v3.74c0,1.04.4,1.55,1.2,1.55h1.62c.15,0,.28.05.38.15.1.1.15.22.15.38v1.83c0,.14-.05.26-.15.37-.1.1-.22.16-.38.16h-1.95c-2.9,0-4.35-1.38-4.35-4.14Z"/>
    <path class="cls-2" d="m184.81,24.12c-.11-.11-.16-.23-.16-.37v-13.86c0-.15.05-.28.16-.38s.23-.15.37-.15h2.69c.15,0,.28.05.38.15.1.1.15.22.15.38v4.68c.84-.95,1.95-1.43,3.32-1.43.81,0,1.54.18,2.17.55.64.36,1.14.9,1.5,1.62s.55,1.58.55,2.58v5.86c0,.14-.05.26-.15.37-.1.1-.22.16-.38.16h-2.71c-.14,0-.26-.05-.37-.16-.1-.11-.16-.23-.16-.37v-5.73c0-.66-.16-1.17-.47-1.52-.31-.36-.77-.54-1.38-.54s-1.08.18-1.42.54c-.34.36-.51.86-.51,1.52v5.73c0,.15-.05.28-.15.38s-.22.15-.38.15h-2.69c-.14,0-.26-.05-.37-.16Z"/>
    <path class="cls-2" d="m199.38,23.12c-.97-.91-1.47-2.23-1.51-3.97v-.74c.06-1.65.57-2.94,1.54-3.87.97-.93,2.28-1.4,3.92-1.4,1.19,0,2.19.24,3.01.72.82.48,1.43,1.14,1.85,1.98s.62,1.81.62,2.9v.5c0,.14-.05.26-.15.37-.1.1-.22.16-.38.16h-6.72v.15c.03.66.19,1.19.48,1.6.29.41.72.61,1.28.61.35,0,.64-.07.86-.22.22-.15.43-.33.61-.54.13-.15.23-.25.3-.28.08-.03.2-.05.37-.05h2.6c.13,0,.23.04.33.12s.14.18.14.3c0,.36-.21.79-.62,1.26s-1.01.89-1.8,1.24c-.78.35-1.71.53-2.77.53-1.68,0-3-.46-3.97-1.37Zm5.73-5.42v-.04c0-.69-.16-1.23-.47-1.63-.31-.4-.75-.6-1.31-.6s-.98.2-1.29.6c-.32.4-.47.94-.47,1.63v.04h3.55Z"/>
    <path class="cls-2" d="m215.64,24.12c-.11-.11-.16-.23-.16-.37v-13.65c0-.15.05-.28.16-.38.1-.1.23-.15.37-.15h9.66c.15,0,.28.05.38.15.1.1.15.22.15.38v2.12c0,.14-.05.26-.15.37-.1.11-.22.16-.38.16h-6.49v3.09h6.07c.15,0,.28.05.38.16.1.1.15.23.15.39v2.1c0,.14-.05.26-.15.37-.1.11-.22.16-.38.16h-6.07v4.75c0,.15-.05.28-.15.38-.1.1-.22.15-.38.15h-2.65c-.14,0-.26-.05-.37-.16Z"/>
    <path class="cls-2" d="m229.15,23.23c-.76-.83-1.13-2-1.13-3.5v-5.86c0-.15.05-.28.15-.38s.22-.15.38-.15h2.62c.15,0,.28.05.39.15.1.1.16.22.16.38v5.73c0,1.37.61,2.06,1.83,2.06.59,0,1.05-.18,1.39-.55.34-.36.5-.87.5-1.51v-5.73c0-.15.05-.28.16-.38.11-.1.23-.15.37-.15h2.62c.15,0,.28.05.38.15.1.1.15.22.15.38v9.87c0,.14-.05.26-.15.37-.1.1-.22.16-.38.16h-2.44c-.14,0-.26-.05-.37-.16s-.16-.23-.16-.37v-.8c-.73,1.02-1.89,1.53-3.49,1.53-1.23,0-2.23-.42-2.98-1.25Z"/>
    <path class="cls-2" d="m242.82,20.14v-4.03h-1.64c-.15,0-.28-.05-.39-.15-.1-.1-.16-.22-.16-.38v-1.7c0-.15.05-.28.16-.38.11-.1.23-.15.39-.15h1.64v-3.46c0-.15.05-.28.16-.38.1-.1.23-.15.37-.15h2.44c.15,0,.28.05.38.15.1.1.15.22.15.38v3.46h2.62c.15,0,.28.05.39.15.1.1.16.22.16.38v1.7c0,.15-.05.28-.16.38-.11.1-.23.15-.39.15h-2.62v3.74c0,1.04.4,1.55,1.2,1.55h1.62c.15,0,.28.05.38.15.1.1.15.22.15.38v1.83c0,.14-.05.26-.15.37-.1.1-.22.16-.38.16h-1.95c-2.9,0-4.35-1.38-4.35-4.14Z"/>
    <path class="cls-2" d="m252.42,23.23c-.76-.83-1.13-2-1.13-3.5v-5.86c0-.15.05-.28.15-.38s.22-.15.38-.15h2.62c.15,0,.28.05.39.15.1.1.16.22.16.38v5.73c0,1.37.61,2.06,1.83,2.06.59,0,1.05-.18,1.39-.55.34-.36.5-.87.5-1.51v-5.73c0-.15.05-.28.16-.38.11-.1.23-.15.37-.15h2.62c.15,0,.28.05.38.15.1.1.15.22.15.38v9.87c0,.14-.05.26-.15.37-.1.1-.22.16-.38.16h-2.44c-.14,0-.26-.05-.37-.16s-.16-.23-.16-.37v-.8c-.73,1.02-1.89,1.53-3.49,1.53-1.23,0-2.23-.42-2.98-1.25Z"/>
    <path class="cls-2" d="m265,24.13c-.1-.1-.15-.22-.15-.38v-9.87c0-.15.05-.28.15-.38.1-.1.22-.15.38-.15h2.42c.15,0,.28.05.39.16s.16.23.16.37v.84c.77-.91,1.81-1.37,3.11-1.37h.92c.15,0,.28.05.38.15.1.1.15.22.15.38v2.16c0,.14-.05.26-.15.37-.1.1-.22.16-.38.16h-2.04c-.57,0-1.02.16-1.33.47-.32.31-.47.76-.47,1.33v5.38c0,.15-.05.28-.16.38-.11.1-.24.15-.39.15h-2.6c-.15,0-.28-.05-.38-.15Z"/>
    <path class="cls-2" d="m275.35,23.12c-.97-.91-1.47-2.23-1.51-3.97v-.74c.06-1.65.57-2.94,1.54-3.87.97-.93,2.28-1.4,3.92-1.4,1.19,0,2.19.24,3.01.72.82.48,1.43,1.14,1.85,1.98s.62,1.81.62,2.9v.5c0,.14-.05.26-.15.37-.1.1-.22.16-.38.16h-6.72v.15c.03.66.19,1.19.48,1.6.29.41.72.61,1.28.61.35,0,.64-.07.86-.22.22-.15.43-.33.61-.54.13-.15.23-.25.3-.28.08-.03.2-.05.37-.05h2.6c.13,0,.23.04.33.12s.14.18.14.3c0,.36-.21.79-.62,1.26s-1.01.89-1.8,1.24c-.78.35-1.71.53-2.77.53-1.68,0-3-.46-3.97-1.37Zm5.73-5.42v-.04c0-.69-.16-1.23-.47-1.63-.31-.4-.75-.6-1.31-.6s-.98.2-1.29.6c-.32.4-.47.94-.47,1.63v.04h3.55Z"/>
  </g>
</svg>