<?xml version="1.0" encoding="UTF-8"?>
<svg xmlns="http://www.w3.org/2000/svg" viewBox="0 0 145.25 129.85">
  <defs>
    <style>
      .cls-1 {
        fill: #fff;
      }

      .cls-2 {
        fill: #2c1710;
      }

      .cls-3 {
        isolation: isolate;
      }

      .cls-4 {
        fill: #e5ccca;
      }

      .cls-4, .cls-5, .cls-6, .cls-7 {
        mix-blend-mode: multiply;
      }

      .cls-8 {
        fill: #9b9695;
      }

      .cls-9 {
        fill: #f2e9e8;
      }

      .cls-10 {
        fill: #d99894;
      }

      .cls-11 {
        fill: #7a7675;
      }

      .cls-11, .cls-12 {
        mix-blend-mode: screen;
      }

      .cls-13 {
        fill: #fbcbc9;
      }

      .cls-14 {
        fill: #2c1f10;
      }

      .cls-5 {
        fill: #b3acac;
      }

      .cls-12 {
        fill: #424040;
      }

      .cls-15 {
        fill: #f9d726;
      }

      .cls-16 {
        fill: #f6958d;
      }

      .cls-17 {
        fill: #e57f7a;
      }

      .cls-18 {
        fill: #231a10;
      }

      .cls-6 {
        fill: #f2e8e7;
      }

      .cls-19 {
        fill: #edbfbc;
      }

      .cls-20 {
        fill: #f48177;
      }

      .cls-21 {
        fill: #010101;
      }

      .cls-22 {
        fill: #8f8989;
      }

      .cls-7 {
        fill: #e6dddc;
      }
    </style>
  </defs>
  <g class="cls-3">
    <g id="Layer_1" data-name="Layer 1">
      <g>
        <path class="cls-15" d="m136.3,27.27c0-6.06-4.95-10.96-11.03-10.87-5.79.08-10.66,4.98-10.71,10.77-.03,2.87,1.06,5.49,2.86,7.44,2.5,2.72,4.1,6.15,4.1,9.84v1.74h8.36v-2.24c0-3.44,1.22-6.81,3.55-9.34,1.78-1.93,2.87-4.51,2.87-7.35Z"/>
        <path class="cls-11" d="m127.44,21.35c1.97,1.74-2.38.74-4.11,2.71-1.74,1.97-.21,6.16-2.18,4.42-1.97-1.74-2.16-4.74-.42-6.71,1.74-1.97,4.74-2.16,6.71-.42Z"/>
        <path class="cls-10" d="m112.11,80.68c3.13-1.61,10.66-10.87,10.79-14.88.13-4-1.3-9.96.22-10.26,1.52-.3,4.35.57,4.31,4.61-.04,4.05-1.44,5.92-1.22,6.7s2.57,2.57,2.57,2.7v5.87c0,.43.39,1.44-.22,2s-5.05.83-6.26-.78c-2.04,3.57-5.96,12.96-7.79,13.44-1.83.48-2.39-9.4-2.39-9.4Z"/>
        <path class="cls-19" d="m129.01,65c-.87.07-2.33.88-1.86,1.97.48,1.09,1.39,2.96.74,4-.65,1.04-1.65,2.57-.39,3.18,1.26.61-1.39,3.35.52,3.91s4.74-3.91,4.52-7.74c-.22-3.83-2.82-5.38-3.54-5.32Z"/>
        <path class="cls-13" d="m124.06,69.18c.61-1.51,3.06-3.22,4.84-2.35s1.37,2.78-1.44,3.54-2.64,1.51-2.64,1.51c0,0,2.23,2.15,1.48,3.68s-4,1.07-4,1.07c0,0-4.52,11.31-8.24,13.46-.26-.26-1.8-8.63-1.94-9.41,2.26-1.93,6.11-4.61,9.91-11.93.88.06,2.04.44,2.04.44Z"/>
        <path class="cls-13" d="m83.65,113.87c1.91,2.72,1.34,11.36,1.11,11.67-.22.31-1.56,2.27.71,2.81,2.27.53,11.4.98,14.79-1.11-.94-3.43-3.92-6.59-12.56-3.52.98-2.85.62-8.33.13-10.73s-4.19.89-4.19.89Z"/>
        <path class="cls-4" d="m100.26,127.23c-.94-3.43-3.92-6.59-12.56-3.52.98-2.85.62-8.33.13-10.73-.04-.19-.1-.33-.17-.45l-.79,1.36c.3.53,1.34,7.05,0,10.45-1.34,3.41,1.47-.53,3.71-.97,2.24-.43,6.35-.2,8.28,2.97-1.11,1.82-13.62,2.77-14.63.27-.17.66-.05,1.42,1.24,1.72,2.27.53,11.4.98,14.79-1.11Z"/>
        <path class="cls-13" d="m53.24,114.93c-1.91,2.72-1.34,11.36-1.11,11.67.22.31,1.56,2.27-.71,2.81-2.27.53-11.4.98-14.79-1.11.94-3.43,3.92-6.59,12.56-3.52-.98-2.85-.62-8.33-.13-10.73s4.19.89,4.19.89Z"/>
        <path class="cls-4" d="m36.62,128.29c.94-3.43,3.92-6.59,12.56-3.52-.98-2.85-.62-8.33-.13-10.73.04-.19.1-.33.17-.45l.79,1.36c-.3.53-1.34,7.05,0,10.45,1.34,3.41-1.47-.53-3.71-.97s-6.35-.2-8.28,2.97c1.11,1.82,13.62,2.77,14.63.27.17.66.05,1.42-1.24,1.72-2.27.53-11.4.98-14.79-1.11Z"/>
        <path class="cls-13" d="m19.95,104.06c-1.14,7.22-10.32,5.39-10.54,5.28-.69-3.49-2.67-5.13-4.09-4.2-1.42.93-1.15,2.24,1.12,4.46-4.45-.88-10.62,4.99-2.43,3.52.64-.11,1.19.15.77.44-7.83,5.36-.53,5.83,2.06,1.56-2.09,5.76,2.04,6.49,3.69-1.67,8.8.75,12.64-6.34,12.64-6.34l-3.22-3.04Z"/>
        <path class="cls-4" d="m6.53,110.9c-.16,1.44,1.74,2.72,2.45,2.55-1.94-.99-1.96-2.53-1.96-2.53-.29-.17-.49-.02-.49-.02Z"/>
        <path class="cls-4" d="m9.17,110.11c2.18.57,6.34,2.04,13.17-3.53l-2.24-2.63c-1.57,7.63-10.47,5.49-10.68,5.39-.69-3.49-2.67-5.13-4.09-4.2,1.12-.23,3.57,3.87,3.85,4.97Z"/>
        <path class="cls-4" d="m0,112.6c.86-1.38,3.33-2.5,6.44-3.01-2.92-.57-6.58,1.75-6.44,3.01Z"/>
        <path class="cls-4" d="m5.06,113.88s-.12-.14-.13-.51c0,.06-.04.12-.14.18-3.11,2.13-3.83,3.49-3.41,4.08.05-1.28,2.79-3.64,3.68-3.75Z"/>
        <path class="cls-17" d="m73.14,59.13c1.25-4.19,10.15-11.31,17.46-2.4,3.47-2.67,13.45-1.78,12.02,8.19,2.23-1.34,4.63.36,4.28,2.76,5.7,1.6,6.95,3.38,5.34,8.19,4.19,1.34,6.06,6.95,2.94,11.85,4.92,3.45,4.1,13.63-3.56,14.25.27,5.43-5.61,5.37-6.5,3.56-.04,9.29-11.53,12.02-16.39,7.57-2.23,2.85-11.85,2.32-13.54-6.77s-8.11-43.11-8.11-43.11l6.06-4.1Z"/>
        <path class="cls-16" d="m59.6,53.43c5.26-4.9,13-3.38,13,3.65,2.58-.18,3.12,5.61,1.07,6.23,5.17-.18,4.1,6.32,3.47,7.3,2.23.09,2.14,3.65.09,5.17-2.05,1.51.45,5.26,4.01,3.47,1.43.89,2.14,4.99-1.78,6.5.71,5.7-1.6,20.31-2.76,22.71-1.16,2.4-5.61,5.7-11.31,2.94-6.86,9.8-17.81,1.78-17.81,1.78-13.81,7.84-19.68-2.85-20.22-5.17-8.55,1.25-9.35-5.88-8.91-8.28-13-6.95-2.32-19.24,3.65-18.17-6.68-10.33,6.32-14.79,8.91-12.92-2.85-6.77,5.43-9.8,7.57-6.68-1.34-7.13,8.64-8.28,9.62-6.5-.53-5.61,10.06-7.13,11.4-2.05Z"/>
        <path class="cls-6" d="m110.02,87.27c2.8-4.39,1.12-9.42-2.64-10.62,1.44-4.31.32-5.91-4.79-7.35.32-2.16-1.84-3.67-3.83-2.48,1.28-8.94-7.67-9.74-10.78-7.35-5.79-7.06-12.69-2.89-14.99.77-.31-.3-.69-.48-1.14-.45,0-6.31-6.95-7.67-11.66-3.27-1.2-4.55-10.7-3.19-10.22,1.84-.88-1.6-9.82-.56-8.63,5.83-1.92-2.8-9.34-.08-6.79,5.99-2.32-1.68-13.98,2.32-7.99,11.58-5.35-.96-14.93,10.06-3.27,16.29-.4,2.16.32,8.55,7.99,7.43.48,2.08,5.75,11.66,18.13,4.63,0,0,9.82,7.19,15.97-1.6,4.51,2.19,8.15.14,9.66-1.86,2.69,5.52,9.52,5.61,11.27,3.37,4.35,3.99,14.65,1.54,14.69-6.79.8,1.62,6.07,1.68,5.83-3.19,6.87-.56,7.61-9.68,3.19-12.78Z"/>
        <circle class="cls-9" cx="56.98" cy="79.82" r="7.68"/>
        <path class="cls-1" d="m56.98,72.14c-1.72,0-3.3.57-4.58,1.53-1.28,1.37-2.08,3.21-2.08,5.24,0,4.24,3.44,7.68,7.68,7.68,1.72,0,3.3-.57,4.58-1.53,1.28-1.37,2.08-3.21,2.08-5.24,0-4.24-3.44-7.68-7.68-7.68Z"/>
        <path class="cls-14" d="m48.26,73.76h0c-1.02.13-1.92-.74-1.8-1.76.22-1.78,1.03-3.44,2.35-4.74,1.19-1.16,2.69-1.94,4.22-2.22,1.09-.2,2.07.7,1.91,1.8h0c-.1.68-.61,1.23-1.28,1.34-.92.16-1.87.64-2.61,1.37-.5.49-1.24,1.43-1.41,2.8-.09.73-.66,1.31-1.39,1.41Z"/>
        <path class="cls-14" d="m97.26,69.74h0c1.01-.19,1.61-1.28,1.18-2.22-.74-1.63-2.02-2.97-3.67-3.8-1.48-.75-3.15-1.03-4.7-.84-1.1.14-1.76,1.29-1.28,2.29h0c.3.62.95.99,1.62.89.93-.13,1.98.05,2.9.51.62.32,1.61.99,2.19,2.24.31.67,1.02,1.05,1.75.92Z"/>
        <rect class="cls-20" x="39.16" y="86.97" width="14.12" height="7.3" rx="3.65" ry="3.65"/>
        <path class="cls-20" d="m103.51,93.3l-6.73,1.09c-1.99.32-3.87-1.03-4.19-3.02h0c-.32-1.99,1.03-3.87,3.02-4.19l6.73-1.09c1.99-.32,3.87,1.03,4.19,3.02h0c.32,1.99-1.03,3.87-3.02,4.19Z"/>
        <path class="cls-7" d="m26.95,84.41c-1.32,0-2.46-.63-3.22-1.8l.36-.23c.83,1.29,2.18,1.84,3.71,1.51,1.96-.42,3.54-2.11,3.85-4.1.6-3.94,2.28-4.67,4.98-4.59,2.47.07,3.37-.12,4.52-2.62l.39.18c-1.25,2.7-2.35,2.93-4.92,2.86-2.58-.07-3.99.57-4.55,4.23-.33,2.17-2.05,4-4.18,4.46-.32.07-.64.1-.95.1Z"/>
        <path class="cls-7" d="m21.38,98.49c-.46-.89-.63-2.36.03-3.66.43-.84,1.37-1.91,3.4-2.22,1.1-.17,2.07-.22,2.92-.26,2.17-.11,3.06-.21,3.18-1.55.1-1.1-.47-2.15-1.02-3.16-.52-.96-1.02-1.87-.84-2.71l.42.09c-.14.69.31,1.53.8,2.42.56,1.02,1.19,2.17,1.08,3.4-.16,1.77-1.52,1.84-3.59,1.94-.84.04-1.79.09-2.87.25-1.85.28-2.7,1.24-3.08,1.99-.59,1.16-.44,2.48-.03,3.27l-.38.2Z"/>
        <path class="cls-7" d="m31.48,99.72c-1.45,0-2.37-.67-2.9-1.23-1.49-1.61-1.58-4.21-.67-5.46l.35.25c-.8,1.1-.69,3.49.64,4.92.82.89,2.75,2.04,6.42-.22l.22.36c-1.67,1.02-3.01,1.38-4.07,1.38Z"/>
        <path class="cls-7" d="m64.3,66.81c-.89,0-1.81-.22-2.57-.68l.22-.37c1.44.85,3.46.83,4.59-.05.79-.61,1.04-1.54.72-2.67-.92-3.23-.64-5.71,3.68-7.31l.15.4c-4.03,1.49-4.3,3.71-3.42,6.8.37,1.3.06,2.41-.87,3.13-.65.5-1.56.75-2.5.75Z"/>
        <path class="cls-7" d="m62.57,111.04c-1.01.33-2.02.14-2.76-.53-1.04-.95-1.38-2.66-.93-4.69.4-1.8.05-3.37-1.02-4.53-.32-.34-.7-.64-1.13-.89,1.17-.25,2.11-1.07,2.69-2.39.84-1.89.68-4.3-.35-5.47l-.32.28c.91,1.04,1.04,3.29.28,5.01-.36.81-1.22,2.18-2.98,2.21-1.44-.63-3.31-.83-5.42-.54l.06.42c3.02-.42,5.52.18,6.86,1.64.97,1.05,1.29,2.49.92,4.15-.49,2.19-.1,4.05,1.06,5.1.58.53,1.31.8,2.08.8.36,0,.73-.06,1.1-.18l-.13-.41Z"/>
        <path class="cls-7" d="m91.74,103.09c-1.1,0-2.2-.48-3.08-1.41l.31-.3c1.42,1.49,3.1,1.47,4.2.95,1.38-.65,2.15-2.05,1.97-3.58l.42-.05c.2,1.72-.67,3.29-2.22,4.02-.52.25-1.07.37-1.62.37Z"/>
        <path class="cls-7" d="m92.18,110.91c-1.06,0-2.34-.23-3.88-.81l.15-.4c5.13,1.92,7.11-.09,7.84-1.46,1.11-2.1.59-5.3-1.05-6.45l.25-.35c1.83,1.29,2.4,4.69,1.18,7-.46.87-1.69,2.47-4.48,2.47Z"/>
        <path class="cls-7" d="m97.55,103.14c-.85-3.21.61-4.75,1.55-5.38,1.46-.98,3.6-1.06,4.76-.17l-.26.34c-.9-.68-2.83-.77-4.27.19-.85.57-2.16,1.96-1.38,4.92l-.41.11Z"/>
        <path class="cls-7" d="m101.14,80l-.23-.36c.44-.28,1.04-1.63.99-3.11-.03-1.06-.41-2.51-2.01-3.4l-.33-.19.33-.19c1.23-.69,2.1-1.8,2.44-3.13.28-1.09.15-2.21-.34-2.98l.36-.23c.55.87.7,2.11.39,3.32-.34,1.33-1.16,2.46-2.34,3.21,1.51,1,1.88,2.48,1.92,3.57.05,1.57-.59,3.1-1.19,3.49Z"/>
        <path class="cls-7" d="m107.02,81.81c-1.48,0-2.85-.66-3.63-1.8l.35-.24c.83,1.22,2.43,1.82,4.08,1.54,1.4-.24,2.44-1.06,2.72-2.12l.41.11c-.32,1.23-1.5,2.16-3.06,2.44-.29.05-.58.08-.87.08Z"/>
        <path class="cls-7" d="m108.27,89.98l-.31-.29c1.61-1.73,1.86-5.26-.22-7.21l.29-.31c2.26,2.12,1.98,5.94.24,7.82Z"/>
        <g>
          <path class="cls-14" d="m60.78,76.24c0,1.64-1.33,2.97-2.97,2.97s-2.97-1.33-2.97-2.97,1.33-2.97,2.97-2.97,2.97,1.33,2.97,2.97Z"/>
          <path class="cls-18" d="m59.98,76.24c0,1.2-.97,2.17-2.17,2.17s-2.17-.97-2.17-2.17.97-2.17,2.17-2.17,2.17.97,2.17,2.17Z"/>
          <circle class="cls-21" cx="57.8" cy="76.24" r="1.27"/>
          <path class="cls-11" d="m61.01,75.08c0,.77-.63,1.4-1.4,1.4s-1.4-.63-1.4-1.4.63-1.4,1.4-1.4,1.4.63,1.4,1.4Z"/>
        </g>
        <circle class="cls-9" cx="92.13" cy="77.81" r="7.68" transform="translate(-28.04 87.94) rotate(-45)"/>
        <path class="cls-1" d="m92.13,70.13c-1.72,0-3.3.57-4.58,1.53-1.28,1.37-2.08,3.21-2.08,5.24,0,4.24,3.44,7.68,7.68,7.68,1.72,0,3.3-.57,4.58-1.53,1.28-1.37,2.08-3.21,2.08-5.24,0-4.24-3.44-7.68-7.68-7.68Z"/>
        <g>
          <circle class="cls-14" cx="92.96" cy="74.24" r="2.97"/>
          <path class="cls-18" d="m94.97,74.24c0,1.2-.97,2.17-2.17,2.17s-2.17-.97-2.17-2.17.97-2.17,2.17-2.17,2.17.97,2.17,2.17Z"/>
          <circle class="cls-21" cx="92.8" cy="74.24" r="1.27"/>
          <path class="cls-11" d="m96.17,73.07c0,.77-.63,1.4-1.4,1.4s-1.4-.63-1.4-1.4.63-1.4,1.4-1.4,1.4.63,1.4,1.4Z"/>
        </g>
        <path class="cls-11" d="m81.58,80.97c.13.62-.49,1.27-1.37,1.45-.88.18.37-.97.25-1.58-.13-.62-1.59-.48-.7-.66.88-.18,1.7.18,1.82.8Z"/>
        <path class="cls-2" d="m81.67,89.39c-.33.93-1.46,1.79-2.91,1.89-1.44.1-4.81.81-5.16,3.96-.35,3.14,3.38,4.23,5.05,2.77,1.67-1.46,1.99-3.96.93-5.19,2.56-1.3,2.09-3.43,2.09-3.43Z"/>
        <path class="cls-5" d="m75.5,101.15c-1.51.33-2.79-.61-2.98-1.29.61,3.27,2.08,1.97,2.98,1.29Z"/>
        <path class="cls-22" d="m126.57,45.83c-.06-.22-1.31-5.43,1.85-8.03,1.55-1.27,2.37-2.6,2.36-3.83,0-.92-.46-1.76-1.35-2.49-.14-.11-.28-.19-.42-.23.35.67.55,1.55.38,2.32-.14.63-.64,1.69-2.47,1.69-1.02,0-1.34-.55-1.44-.87-.32-1.06.67-2.61,1.76-3.34.15-.1.31-.19.46-.26-1.21-.52-2.41-.53-3.4-.03-.06.03-.13.07-.19.1.98.63,1.63,1.66,1.3,2.84-.42,1.45-1.28,1.8-1.96,1.63-.87-.21-1.62-1.33-1.35-2.67.12-.62.41-1.18.82-1.65-.02,0-.04-.01-.06-.02-1.01-.3-2.33-.18-2.72,1.11-.81,2.68,2.23,5.12,4.11,6.33,1.73,1.11,1.19,3.49.68,5.79-.12.53-.24,1.06-.33,1.58l-.64-.11c.09-.52.21-1.07.33-1.61.49-2.18.95-4.23-.39-5.1-2.04-1.31-5.32-3.97-4.38-7.07.5-1.64,2.13-1.96,3.53-1.55.14.04.28.09.42.15.17-.13.35-.24.55-.34,1.2-.61,2.64-.59,4.07.06.15.07.3.18.44.33.48-.04.94.1,1.33.42,1.04.84,1.59,1.88,1.59,2.99,0,1.43-.9,2.93-2.6,4.34-2.84,2.33-1.65,7.31-1.63,7.36l-.63.16Zm-3.01-14.54c-.42.41-.7.93-.82,1.5-.19.95.3,1.77.87,1.91.49.12.93-.32,1.18-1.18.27-.93-.36-1.76-1.22-2.23Zm4.7-.02c-.24.07-.47.19-.66.32-.96.65-1.7,1.94-1.5,2.61.03.1.13.41.81.41,1.05,0,1.67-.4,1.83-1.18.16-.75-.13-1.64-.49-2.17Z"/>
        <path class="cls-8" d="m129.74,47.6h-8.61c-.68,0-1.24-.55-1.24-1.24h0c0-.68.55-1.24,1.24-1.24h8.61c.68,0,1.24.55,1.24,1.24h0c0,.68-.55,1.24-1.24,1.24Z"/>
        <rect class="cls-12" x="120.97" y="45.76" width="5.31" height="1.06" rx=".53" ry=".53"/>
        <path class="cls-8" d="m129.74,50.07h-8.61c-.68,0-1.24-.55-1.24-1.24h0c0-.68.55-1.24,1.24-1.24h8.61c.68,0,1.24.55,1.24,1.24h0c0,.68-.55,1.24-1.24,1.24Z"/>
        <rect class="cls-12" x="120.97" y="48.39" width="5.31" height="1.06" rx=".53" ry=".53"/>
        <path class="cls-8" d="m129.74,52.55h-8.61c-.68,0-1.24-.55-1.24-1.24h0c0-.68.55-1.24,1.24-1.24h8.61c.68,0,1.24.55,1.24,1.24h0c0,.68-.55,1.24-1.24,1.24Z"/>
        <path class="cls-15" d="m125.93,11.15h0c-.83,0-1.51-.68-1.51-1.51V1.51c0-.83.68-1.51,1.51-1.51h0c.83,0,1.51.68,1.51,1.51v8.13c0,.83-.68,1.51-1.51,1.51Z"/>
        <path class="cls-15" d="m138.52,17.66h0c-.7-.45-.9-1.39-.45-2.09l4.4-6.83c.45-.7,1.39-.9,2.09-.45h0c.7.45.9,1.39.45,2.09l-4.4,6.83c-.45.7-1.39.9-2.09.45Z"/>
        <path class="cls-15" d="m112.34,17.66h0c.7-.45.9-1.39.45-2.09l-4.4-6.83c-.45-.7-1.39-.9-2.09-.45h0c-.7.45-.9,1.39-.45,2.09l4.4,6.83c.45.7,1.39.9,2.09.45Z"/>
        <rect class="cls-12" x="120.97" y="50.88" width="5.31" height="1.06" rx=".53" ry=".53"/>
      </g>
    </g>
  </g>
</svg>