<?xml version="1.0" encoding="UTF-8"?>
<svg xmlns="http://www.w3.org/2000/svg" viewBox="0 0 137.24 77.44">
  <defs>
    <style>
      .cls-1 {
        fill: #fff;
      }

      .cls-2 {
        fill: #2c1710;
      }

      .cls-3 {
        isolation: isolate;
      }

      .cls-4 {
        fill: #f7a29a;
      }

      .cls-5, .cls-6 {
        fill: #e5cecc;
      }

      .cls-7 {
        fill: #f2e9e8;
      }

      .cls-8 {
        fill: #7a7675;
        mix-blend-mode: screen;
      }

      .cls-9 {
        fill: #fbcbc9;
      }

      .cls-10 {
        fill: #2c1f10;
      }

      .cls-11 {
        fill: #b3acac;
      }

      .cls-11, .cls-6, .cls-12, .cls-13, .cls-14 {
        mix-blend-mode: multiply;
      }

      .cls-15 {
        fill: #f6958d;
      }

      .cls-16 {
        fill: #e57f7a;
      }

      .cls-17 {
        fill: #231a10;
      }

      .cls-12 {
        fill: #f2e8e7;
      }

      .cls-18 {
        fill: #411a0f;
      }

      .cls-19 {
        fill: #010101;
      }

      .cls-14 {
        fill: #e6dddc;
      }
    </style>
  </defs>
  <g class="cls-3">
    <g id="Layer_1" data-name="Layer 1">
      <g>
        <path class="cls-9" d="m87.3,61.87c1.87,2.65,1.3,11.06,1.08,11.36-.22.3-1.52,2.21.69,2.73,2.21.52,11.1.95,14.4-1.08-.91-3.34-3.82-6.42-12.23-3.43.95-2.78.61-8.11.13-10.45-.48-2.34-4.08.87-4.08.87Z"/>
        <path class="cls-6" d="m103.48,74.88c-.91-3.34-3.82-6.42-12.23-3.43.95-2.78.61-8.11.13-10.45-.04-.18-.1-.32-.17-.44l-.77,1.33c.29.52,1.3,6.86,0,10.18-1.3,3.32,1.43-.52,3.61-.94s6.18-.2,8.07,2.9c-1.08,1.78-13.26,2.7-14.24.26-.17.64-.04,1.38,1.21,1.68,2.21.52,11.1.95,14.4-1.08Z"/>
        <path class="cls-9" d="m57.67,62.91c-1.87,2.65-1.3,11.06-1.08,11.36s1.52,2.21-.69,2.73c-2.21.52-11.1.95-14.4-1.08.91-3.34,3.82-6.42,12.23-3.43-.95-2.78-.61-8.11-.13-10.45s4.08.87,4.08.87Z"/>
        <path class="cls-6" d="m41.5,75.92c.91-3.34,3.82-6.42,12.23-3.43-.95-2.78-.61-8.11-.13-10.45.04-.18.1-.32.17-.44l.77,1.33c-.29.52-1.3,6.86,0,10.18,1.3,3.32-1.43-.52-3.61-.94s-6.18-.2-8.07,2.9c1.08,1.78,13.26,2.7,14.24.26.17.64.04,1.38-1.21,1.68-2.21.52-11.1.95-14.4-1.08Z"/>
        <path class="cls-9" d="m18.61,38.14c-2.96-.78-7.29-5.46-7.35-5.69,2.08-2.77,1.98-5.27.39-5.69-1.59-.42-2.37.62-2.5,3.71-2.26-3.8-10.52-4.47-4.13.52.5.39.66.96.18.85-8.98-2.2-4.58,3.4.21,2.5-5.54,2.22-3.38,5.69,3.61,1.59,2.31,3.77,10.6,7.03,10.6,7.03l-1.01-4.81Z"/>
        <path class="cls-6" d="m8.25,31.38c-1.15.82-.85,3.03-.26,3.44-.54-2.05.56-3.07.56-3.07-.07-.33-.3-.37-.3-.37Z"/>
        <path class="cls-6" d="m10.54,32.78c1,1.95,6.35,5.4,8.33,6.64l-.27-1.27c-2.96-.78-7.29-5.46-7.35-5.69,2.08-2.77,1.98-5.27.39-5.69.89.66-.49,5.11-1.11,6.02Z"/>
        <path class="cls-6" d="m2.78,27.75c1.56-.28,3.98.79,6.36,2.72-1.48-2.49-5.55-3.64-6.36-2.72Z"/>
        <g class="cls-13">
          <g>
            <polygon class="cls-5" points="5.45 31.78 5.45 31.78 5.45 31.78 5.45 31.78"/>
            <path class="cls-5" d="m5.13,32.25s.03-.18.28-.43c-.05.03-.11.04-.22.02-3.57-.88-5.02-.52-5.17.18.96-.8,4.45-.34,5.11.23Z"/>
          </g>
        </g>
        <path class="cls-9" d="m118.63,38.14c2.96-.78,7.29-5.46,7.35-5.69-2.08-2.77-1.98-5.27-.39-5.69,1.59-.42,2.37.62,2.5,3.71,2.26-3.8,10.52-4.47,4.13.52-.5.39-.66.96-.18.85,8.98-2.2,4.58,3.4-.21,2.5,5.54,2.22,3.38,5.69-3.61,1.59-2.31,3.77-10.6,7.03-10.6,7.03l1.01-4.81Z"/>
        <path class="cls-6" d="m128.99,31.38c1.15.82.85,3.03.26,3.44.54-2.05-.56-3.07-.56-3.07.07-.33.3-.37.3-.37Z"/>
        <path class="cls-6" d="m126.7,32.78c-1,1.95-6.35,5.4-8.33,6.64l.27-1.27c2.96-.78,7.29-5.46,7.35-5.69-2.08-2.77-1.98-5.27-.39-5.69-.89.66.49,5.11,1.11,6.02Z"/>
        <path class="cls-6" d="m134.46,27.75c-1.56-.28-3.98.79-6.36,2.72,1.48-2.49,5.55-3.64,6.36-2.72Z"/>
        <g class="cls-13">
          <g>
            <polygon class="cls-5" points="131.79 31.78 131.79 31.78 131.79 31.78 131.79 31.78"/>
            <path class="cls-5" d="m132.11,32.25s-.03-.18-.28-.43c.05.03.11.04.22.02,3.57-.88,5.02-.52,5.17.18-.96-.8-4.45-.34-5.11.23Z"/>
          </g>
        </g>
        <path class="cls-16" d="m77.06,8.56c1.21-4.08,9.89-11.02,17-2.34,3.38-2.6,13.1-1.73,11.71,7.98,2.17-1.3,4.51.35,4.16,2.69,5.55,1.56,6.77,3.3,5.2,7.98,4.08,1.3,5.9,6.77,2.86,11.54,4.79,3.36,3.99,13.27-3.47,13.88.26,5.29-5.46,5.23-6.33,3.47-.04,9.04-11.23,11.71-15.96,7.37-2.17,2.78-11.54,2.26-13.19-6.59-1.65-8.85-7.89-41.98-7.89-41.98l5.9-3.99Z"/>
        <path class="cls-15" d="m63.88,3.01c5.12-4.77,12.66-3.3,12.66,3.56,2.52-.17,3.04,5.46,1.04,6.07,5.03-.17,3.99,6.16,3.38,7.11,2.17.09,2.08,3.56.09,5.03-2,1.47.43,5.12,3.9,3.38,1.39.87,2.08,4.86-1.73,6.33.69,5.55-1.56,19.78-2.69,22.12-1.13,2.34-5.46,5.55-11.02,2.86-6.68,9.54-17.35,1.73-17.35,1.73-13.45,7.63-19.17-2.78-19.69-5.03-8.33,1.21-9.11-5.73-8.67-8.07-12.66-6.77-2.26-18.74,3.56-17.7-6.51-10.06,6.16-14.4,8.67-12.58-2.78-6.59,5.29-9.54,7.37-6.51-1.3-6.94,8.41-8.07,9.37-6.33-.52-5.46,9.8-6.94,11.1-2Z"/>
        <path class="cls-12" d="m112.98,35.97c2.72-4.28,1.09-9.18-2.57-10.34,1.4-4.2.31-5.76-4.67-7.16.31-2.1-1.79-3.58-3.73-2.41,1.24-8.71-7.47-9.49-10.5-7.16-5.64-6.87-12.36-2.81-14.6.75-.3-.29-.67-.46-1.11-.43,0-6.14-6.77-7.47-11.36-3.19-1.17-4.43-10.42-3.11-9.96,1.79-.86-1.56-9.57-.54-8.4,5.68-1.87-2.72-9.1-.08-6.61,5.83-2.26-1.63-13.61,2.26-7.78,11.28-5.21-.93-14.54,9.8-3.19,15.87-.39,2.1.31,8.32,7.78,7.23.47,2.02,5.6,11.36,17.66,4.51,0,0,9.57,7,15.56-1.56,4.4,2.13,7.94.13,9.4-1.81,2.62,5.38,9.27,5.46,10.97,3.29,4.24,3.89,14.27,1.5,14.31-6.61.78,1.58,5.91,1.63,5.68-3.11,6.69-.54,7.41-9.43,3.11-12.44Z"/>
        <circle class="cls-7" cx="61.32" cy="28.71" r="7.48"/>
        <path class="cls-1" d="m61.32,21.23c-1.68,0-3.22.56-4.46,1.49-1.25,1.34-2.02,3.13-2.02,5.11,0,4.13,3.35,7.48,7.48,7.48,1.68,0,3.22-.56,4.46-1.49,1.25-1.34,2.02-3.13,2.02-5.11,0-4.13-3.35-7.48-7.48-7.48Z"/>
        <path class="cls-10" d="m64.38,28.71c0,1.6-1.3,2.9-2.9,2.9s-2.9-1.3-2.9-2.9,1.3-2.9,2.9-2.9,2.9,1.3,2.9,2.9Z"/>
        <path class="cls-17" d="m63.59,28.71c0,1.17-.95,2.11-2.11,2.11s-2.11-.95-2.11-2.11.95-2.11,2.11-2.11,2.11.95,2.11,2.11Z"/>
        <path class="cls-19" d="m62.72,28.71c0,.69-.56,1.24-1.24,1.24s-1.24-.56-1.24-1.24.56-1.24,1.24-1.24,1.24.56,1.24,1.24Z"/>
        <path class="cls-10" d="m52.84,20.98h0c-.99-.18-1.57-1.25-1.15-2.16.73-1.59,1.97-2.89,3.58-3.71,1.44-.73,3.07-1.01,4.57-.82,1.07.13,1.72,1.26,1.25,2.23h0c-.29.6-.92.96-1.58.87-.9-.13-1.93.05-2.83.5-.61.31-1.57.96-2.14,2.18-.3.65-1,1.03-1.7.9Z"/>
        <path class="cls-10" d="m100.55,18.9h0c.99-.18,1.57-1.25,1.15-2.16-.73-1.59-1.97-2.89-3.58-3.71-1.44-.73-3.07-1.01-4.57-.82-1.07.13-1.72,1.26-1.25,2.23h0c.29.6.92.96,1.58.87.9-.13,1.93.05,2.83.5.61.31,1.57.96,2.14,2.18.3.65,1,1.03,1.7.9Z"/>
        <path class="cls-4" d="m54.16,42.79h-6.64c-1.96,0-3.56-1.59-3.56-3.56h0c0-1.96,1.59-3.56,3.56-3.56h6.64c1.96,0,3.56,1.59,3.56,3.56h0c0,1.96-1.59,3.56-3.56,3.56Z"/>
        <path class="cls-4" d="m106.63,41.84l-6.55,1.07c-1.94.32-3.77-1-4.08-2.94h0c-.32-1.94,1-3.77,2.94-4.08l6.55-1.07c1.94-.32,3.77,1,4.08,2.94h0c.32,1.94-1,3.77-2.94,4.08Z"/>
        <path class="cls-14" d="m32.07,33.18c-1.28,0-2.39-.61-3.13-1.75l.35-.23c.81,1.25,2.13,1.79,3.62,1.47,1.91-.41,3.45-2.05,3.75-4,.58-3.83,2.22-4.55,4.85-4.47,2.41.06,3.28-.12,4.4-2.55l.38.17c-1.22,2.63-2.29,2.85-4.79,2.79-2.51-.07-3.89.55-4.43,4.12-.32,2.11-2,3.9-4.07,4.34-.31.07-.62.1-.92.1Z"/>
        <path class="cls-14" d="m26.65,46.89c-.45-.86-.61-2.3.03-3.57.42-.82,1.33-1.86,3.31-2.16,1.07-.16,2.01-.21,2.84-.25,2.12-.11,2.98-.2,3.1-1.51.1-1.07-.46-2.09-1-3.08-.51-.93-.99-1.82-.82-2.64l.41.09c-.14.67.31,1.49.78,2.36.54.99,1.15,2.12,1.05,3.31-.15,1.72-1.48,1.79-3.49,1.89-.82.04-1.75.09-2.8.25-1.81.27-2.63,1.21-3,1.94-.58,1.13-.43,2.42-.03,3.19l-.37.19Z"/>
        <path class="cls-14" d="m36.49,48.09c-1.41,0-2.31-.65-2.82-1.2-1.45-1.56-1.54-4.1-.65-5.32l.34.24c-.78,1.07-.67,3.4.62,4.8.8.86,2.67,1.98,6.26-.21l.22.35c-1.62,1-2.93,1.35-3.96,1.35Z"/>
        <path class="cls-14" d="m68.45,16.04c-.86,0-1.76-.22-2.51-.66l.21-.36c1.4.83,3.37.81,4.47-.05.77-.6,1.01-1.5.7-2.6-.89-3.15-.63-5.56,3.59-7.12l.14.39c-3.93,1.46-4.18,3.61-3.33,6.62.36,1.27.06,2.35-.84,3.05-.63.49-1.51.73-2.43.73Z"/>
        <path class="cls-14" d="m66.76,59.11c-.99.32-1.97.13-2.69-.52-1.02-.92-1.35-2.59-.9-4.57.39-1.75.05-3.28-1-4.41-.31-.34-.68-.62-1.1-.87,1.14-.24,2.06-1.04,2.62-2.32.81-1.84.67-4.18-.34-5.32l-.31.27c.89,1.01,1.01,3.2.27,4.88-.35.79-1.19,2.12-2.9,2.16-1.41-.61-3.23-.81-5.28-.52l.06.41c2.94-.41,5.37.17,6.68,1.59.95,1.03,1.26,2.42.9,4.04-.48,2.13-.1,3.94,1.03,4.97.57.52,1.27.78,2.03.78.35,0,.71-.06,1.07-.18l-.13-.4Z"/>
        <path class="cls-11" d="m76.19,49.38c2.04,1.56,5.97,2.13,9.12-.13-3.92,4.31-7.54,2.19-9.12.13Z"/>
        <path class="cls-14" d="m95.18,51.37c-1.07,0-2.14-.47-3-1.37l.3-.29c1.39,1.45,3.02,1.43,4.1.93,1.34-.63,2.1-2,1.92-3.49l.41-.05c.2,1.67-.65,3.21-2.16,3.92-.51.24-1.04.36-1.58.36Z"/>
        <path class="cls-14" d="m95.6,58.99c-1.03,0-2.28-.22-3.78-.79l.15-.39c5,1.87,6.93-.09,7.63-1.42,1.08-2.05.58-5.16-1.02-6.28l.24-.34c1.78,1.25,2.34,4.56,1.15,6.82-.45.85-1.64,2.4-4.37,2.4Z"/>
        <path class="cls-14" d="m100.83,51.42c-.83-3.13.59-4.63,1.51-5.24,1.42-.95,3.51-1.03,4.64-.17l-.25.33c-.88-.67-2.76-.75-4.16.18-.83.55-2.1,1.91-1.34,4.79l-.4.11Z"/>
        <path class="cls-14" d="m104.33,28.89l-.23-.35c.42-.27,1.01-1.59.97-3.03-.03-1.03-.4-2.44-1.95-3.31l-.33-.18.33-.18c1.2-.67,2.05-1.75,2.38-3.05.27-1.06.15-2.15-.33-2.9l.35-.22c.54.85.68,2.06.38,3.23-.33,1.3-1.13,2.4-2.28,3.13,1.48.97,1.83,2.41,1.87,3.48.05,1.53-.57,3.02-1.16,3.4Z"/>
        <path class="cls-14" d="m110.06,30.65c-1.45,0-2.78-.64-3.53-1.75l.34-.23c.81,1.19,2.37,1.78,3.97,1.5,1.36-.24,2.38-1.03,2.65-2.07l.4.11c-.32,1.2-1.46,2.11-2.98,2.37-.29.05-.57.07-.85.07Z"/>
        <path class="cls-14" d="m111.27,38.61l-.3-.28c1.56-1.69,1.81-5.12-.22-7.03l.28-.3c2.2,2.06,1.93,5.78.24,7.61Z"/>
        <path class="cls-8" d="m64.6,27.57c0,.75-.61,1.37-1.37,1.37s-1.37-.61-1.37-1.37.61-1.37,1.37-1.37,1.37.61,1.37,1.37Z"/>
        <circle class="cls-7" cx="95.56" cy="26.76" r="7.48"/>
        <path class="cls-1" d="m95.56,19.28c-1.68,0-3.22.56-4.46,1.49-1.25,1.34-2.02,3.13-2.02,5.11,0,4.13,3.35,7.48,7.48,7.48,1.68,0,3.22-.56,4.46-1.49,1.25-1.34,2.02-3.13,2.02-5.11,0-4.13-3.35-7.48-7.48-7.48Z"/>
        <path class="cls-10" d="m98.62,26.76c0,1.6-1.3,2.9-2.9,2.9s-2.9-1.3-2.9-2.9,1.3-2.9,2.9-2.9,2.9,1.3,2.9,2.9Z"/>
        <path class="cls-17" d="m97.84,26.76c0,1.17-.95,2.11-2.11,2.11s-2.11-.95-2.11-2.11.95-2.11,2.11-2.11,2.11.95,2.11,2.11Z"/>
        <path class="cls-19" d="m96.96,26.76c0,.69-.56,1.24-1.24,1.24s-1.24-.56-1.24-1.24.56-1.24,1.24-1.24,1.24.56,1.24,1.24Z"/>
        <path class="cls-8" d="m98.84,25.62c0,.75-.61,1.37-1.37,1.37s-1.37-.61-1.37-1.37.61-1.37,1.37-1.37,1.37.61,1.37,1.37Z"/>
        <path class="cls-2" d="m68.8,37.28c4.71,2.26,15.85,2.08,21.19-.82-1.43,7.2-2.79,9.09-6,10.3-3.21,1.21-9.7,1.16-11.61-1.5-2.78-3.38-3.58-7.98-3.58-7.98Z"/>
        <path class="cls-18" d="m68.8,37.28s.8,4.6,3.58,7.98c1.91,2.65,8.4,2.71,11.61,1.5.55-.21,1.03-.44,1.48-.7-.38-1.7-1.26-4.34-3.29-6.35l-1.03-1.02c-4.69.39-9.61-.09-12.36-1.4Z"/>
        <path class="cls-1" d="m74.38,38.63c.4,1.35,1.53,2.79,5.38,2.74,3.81-.06,5.01-1.37,5.68-3.32-3.47.77-7.57.96-11.07.59Z"/>
        <path class="cls-1" d="m85.32,46.14c-3.8-1.49-9.54-.55-11.25.43,2.75,1.31,7.37,1.15,9.92.19.49-.18.92-.39,1.33-.62Z"/>
        <path class="cls-8" d="m85.28,29.84c.12.6-.47,1.23-1.33,1.41-.86.17.37-.94.24-1.54-.12-.6-1.54-.47-.69-.64.86-.17,1.65.17,1.78.78Z"/>
      </g>
    </g>
  </g>
</svg>