<?xml version="1.0" encoding="UTF-8"?>
<svg id="Layer_1" data-name="Layer 1" xmlns="http://www.w3.org/2000/svg" viewBox="0 0 48.84 352.22">
  <defs>
    <style>
      .cls-1 {
        fill: #8c959d;
      }

      .cls-2 {
        opacity: .2;
      }

      .cls-2, .cls-3, .cls-4 {
        fill: #010101;
      }

      .cls-5 {
        fill: #fff;
        opacity: .3;
      }

      .cls-3 {
        opacity: .1;
      }

      .cls-6 {
        fill: #c0bec2;
      }

      .cls-7 {
        fill: #a3a5a8;
      }

      .cls-8 {
        opacity: .5;
      }

      .cls-8, .cls-9 {
        fill: #3b3a38;
      }

      .cls-10 {
        fill: #d2d1d4;
      }

      .cls-11 {
        fill: #747678;
      }

      .cls-12 {
        fill: #b0acb0;
      }

      .cls-13 {
        fill: #b2b3b7;
      }

      .cls-14 {
        fill: #e6e7e8;
      }

      .cls-4 {
        opacity: .05;
      }
    </style>
  </defs>
  <polygon class="cls-1" points="32.9 207.23 14.68 207.23 11.76 176 35.81 176 32.9 207.23"/>
  <polygon class="cls-7" points="23.79 176 11.76 176 14.68 207.23 23.79 207.23 23.79 176"/>
  <rect class="cls-13" x="15.66" y="176" width="16.27" height="131.82"/>
  <rect class="cls-7" x="23.79" y="176" width="8.13" height="131.82"/>
  <rect class="cls-6" x="17.39" y="176" width="4.77" height="131.82"/>
  <polygon class="cls-10" points="35.81 176 11.76 176 10.46 158.01 37.11 158.01 35.81 176"/>
  <polygon class="cls-6" points="23.79 158.01 23.79 176 35.81 176 37.11 158.01 23.79 158.01"/>
  <rect class="cls-14" x="17.39" y="158.01" width="4.77" height="17.99"/>
  <polygon class="cls-10" points="34.09 110.75 14.74 110.75 13.69 127.09 35.13 127.09 34.09 110.75"/>
  <polygon class="cls-6" points="24.41 127.09 24.41 110.75 34.09 110.75 35.13 127.09 24.41 127.09"/>
  <rect class="cls-14" x="19.27" y="110.75" width="3.84" height="16.33"/>
  <rect class="cls-9" x="10.46" y="151.3" width="26.65" height="6.71"/>
  <rect class="cls-9" x="11.4" y="151.3" width="1" height="6.71"/>
  <rect class="cls-8" x="10.46" y="152.09" width="26.65" height=".83"/>
  <rect class="cls-8" x="10.46" y="154.24" width="26.65" height=".83"/>
  <rect class="cls-8" x="10.46" y="156.38" width="26.65" height=".83"/>
  <rect class="cls-9" x="14" y="151.3" width="1" height="6.71"/>
  <rect class="cls-9" x="16.61" y="151.3" width="1" height="6.71"/>
  <rect class="cls-9" x="19.21" y="151.3" width="1.01" height="6.71"/>
  <rect class="cls-9" x="21.81" y="151.3" width="1" height="6.71"/>
  <rect class="cls-9" x="24.42" y="151.3" width="1" height="6.71"/>
  <rect class="cls-9" x="27.02" y="151.3" width="1" height="6.71"/>
  <rect class="cls-9" x="29.62" y="151.3" width="1.01" height="6.71"/>
  <rect class="cls-9" x="32.22" y="151.3" width="1" height="6.71"/>
  <rect class="cls-9" x="34.83" y="151.3" width="1.01" height="6.71"/>
  <rect class="cls-10" x="10.46" y="147.36" width="26.65" height="3.94"/>
  <rect class="cls-6" x="23.91" y="147.36" width="13.21" height="3.94"/>
  <rect class="cls-14" x="17.39" y="147.36" width="4.77" height="3.94"/>
  <rect class="cls-5" x="16.61" y="151.3" width="5.2" height="6.71"/>
  <rect class="cls-13" x="8.91" y="144.65" width="30" height="2.71"/>
  <rect class="cls-13" x="7.84" y="142.77" width="32.12" height="1.88"/>
  <rect class="cls-9" x="8.91" y="144.65" width="30" height="1.36"/>
  <rect class="cls-13" x="10.46" y="144.65" width=".75" height="2.12"/>
  <rect class="cls-3" x="11.22" y="144.65" width=".75" height="2.12"/>
  <rect class="cls-13" x="14.06" y="144.65" width=".75" height="2.12"/>
  <rect class="cls-3" x="14.81" y="144.65" width=".75" height="2.12"/>
  <rect class="cls-13" x="17.65" y="144.65" width=".75" height="2.12"/>
  <rect class="cls-3" x="18.4" y="144.65" width=".75" height="2.12"/>
  <rect class="cls-13" x="21.25" y="144.65" width=".75" height="2.12"/>
  <rect class="cls-3" x="21.99" y="144.65" width=".75" height="2.12"/>
  <rect class="cls-13" x="24.84" y="144.65" width=".75" height="2.12"/>
  <rect class="cls-9" x="5.01" y="138.48" width="37.61" height="1.1"/>
  <polygon class="cls-9" points="40.02 141.67 7.62 141.67 5.01 139.55 42.62 139.55 40.02 141.67"/>
  <rect class="cls-9" x="5.01" y="136.28" width="37.61" height="1.1"/>
  <polygon class="cls-9" points="7.62 134.18 40.02 134.18 42.62 136.31 5.01 136.31 7.62 134.18"/>
  <rect class="cls-3" x="25.58" y="144.65" width=".75" height="2.12"/>
  <rect class="cls-13" x="28.43" y="144.65" width=".75" height="2.12"/>
  <rect class="cls-3" x="29.18" y="144.65" width=".75" height="2.12"/>
  <rect class="cls-13" x="32.02" y="144.65" width=".75" height="2.12"/>
  <rect class="cls-3" x="32.77" y="144.65" width=".75" height="2.12"/>
  <rect class="cls-13" x="35.62" y="144.65" width=".75" height="2.12"/>
  <rect class="cls-3" x="36.37" y="144.65" width=".75" height="2.12"/>
  <rect class="cls-14" x="3.57" y="141.67" width="41.7" height="1.1"/>
  <rect class="cls-3" x="7.84" y="142.77" width="32.12" height="1.1"/>
  <rect class="cls-9" x="7.62" y="134.18" width=".77" height="3.2"/>
  <rect class="cls-9" x="10.22" y="134.18" width=".77" height="3.2"/>
  <rect class="cls-9" x="12.82" y="134.18" width=".77" height="3.2"/>
  <rect class="cls-9" x="15.43" y="134.18" width=".77" height="3.2"/>
  <rect class="cls-9" x="18.03" y="134.18" width=".77" height="3.2"/>
  <rect class="cls-9" x="20.63" y="134.18" width=".77" height="3.2"/>
  <rect class="cls-9" x="23.23" y="134.18" width=".77" height="3.2"/>
  <rect class="cls-9" x="25.84" y="134.18" width=".77" height="3.2"/>
  <rect class="cls-9" x="28.44" y="134.18" width=".77" height="3.2"/>
  <rect class="cls-9" x="31.04" y="134.18" width=".77" height="3.2"/>
  <rect class="cls-9" x="33.64" y="134.18" width=".77" height="3.2"/>
  <rect class="cls-9" x="36.25" y="134.18" width=".77" height="3.2"/>
  <rect class="cls-9" x="38.85" y="134.18" width=".77" height="3.2"/>
  <rect class="cls-9" x="7.62" y="138.48" width=".77" height="3.2"/>
  <rect class="cls-9" x="10.22" y="138.48" width=".77" height="3.2"/>
  <rect class="cls-9" x="12.82" y="138.48" width=".77" height="3.2"/>
  <rect class="cls-9" x="15.43" y="138.48" width=".77" height="3.2"/>
  <rect class="cls-9" x="18.03" y="138.48" width=".77" height="3.2"/>
  <rect class="cls-9" x="20.63" y="138.48" width=".77" height="3.2"/>
  <rect class="cls-9" x="23.23" y="138.48" width=".77" height="3.2"/>
  <rect class="cls-9" x="25.84" y="138.48" width=".77" height="3.2"/>
  <rect class="cls-9" x="28.44" y="138.48" width=".77" height="3.2"/>
  <rect class="cls-9" x="31.04" y="138.48" width=".77" height="3.2"/>
  <rect class="cls-9" x="33.64" y="138.48" width=".77" height="3.2"/>
  <rect class="cls-9" x="36.25" y="138.48" width=".77" height="3.2"/>
  <rect class="cls-9" x="38.85" y="138.48" width=".77" height="3.2"/>
  <rect class="cls-9" x="5.01" y="136.29" width="37.61" height=".64"/>
  <polygon class="cls-9" points="5.75 140.15 5.01 139.51 42.62 139.57 41.97 140.15 5.75 140.15"/>
  <rect class="cls-14" y="137.38" width="48.83" height="1.1"/>
  <rect class="cls-14" y="133.08" width="48.83" height="1.1"/>
  <polygon class="cls-2" points="41.36 135.28 6.32 135.24 7.63 134.18 39.95 134.18 41.36 135.28"/>
  <rect class="cls-2" x="4.99" y="138.48" width="37.61" height=".92"/>
  <rect class="cls-10" x="10.46" y="130.76" width="26.65" height="2.33"/>
  <polygon class="cls-10" points="37.11 130.76 10.46 130.76 15.67 128.43 31.91 128.43 37.11 130.76"/>
  <rect class="cls-12" x="13.69" y="127.09" width="21.44" height="1.34"/>
  <rect class="cls-14" x="11.96" y="110" width="24.9" height="1.1"/>
  <rect class="cls-3" x="14.63" y="111.11" width="19.58" height="1.1"/>
  <polygon class="cls-10" points="30.01 97.69 18.82 97.69 18.21 110 30.61 110 30.01 97.69"/>
  <polygon class="cls-6" points="24.41 110 24.41 97.69 30.01 97.69 30.61 110 24.41 110"/>
  <rect class="cls-14" x="21.43" y="97.69" width="2.24" height="12.31"/>
  <polygon class="cls-10" points="27.04 16.92 27.04 19 21.88 19 21.88 16.92 20.58 16.92 20.58 19 20.58 20.1 21.88 20.1 27.04 20.1 28.35 20.1 28.35 19 28.35 16.92 27.04 16.92"/>
  <polygon class="cls-10" points="27.04 37.68 27.04 39.76 21.88 39.76 21.88 37.68 20.58 37.68 20.58 39.76 20.58 40.87 21.88 40.87 27.04 40.87 28.35 40.87 28.35 39.76 28.35 37.68 27.04 37.68"/>
  <polygon class="cls-10" points="27.04 55.94 27.04 58.02 21.88 58.02 21.88 55.94 20.58 55.94 20.58 58.02 20.58 59.12 21.88 59.12 27.04 59.12 28.35 59.12 28.35 58.02 28.35 55.94 27.04 55.94"/>
  <rect class="cls-3" x="18.76" y="97.96" width="11.3" height=".83"/>
  <rect class="cls-14" x="13.21" y="108.34" width="1.2" height="2.78"/>
  <rect class="cls-14" x="33.6" y="108.34" width="1.2" height="2.78"/>
  <rect class="cls-14" x="16.44" y="97.12" width="15.95" height="1.09"/>
  <rect class="cls-14" x="16.44" y="95.45" width="1.2" height="2.78"/>
  <rect class="cls-14" x="19.27" y="95.45" width="1.2" height="2.78"/>
  <rect class="cls-14" x="28.36" y="95.45" width="1.2" height="2.78"/>
  <rect class="cls-14" x="31.19" y="95.45" width="1.2" height="2.78"/>
  <rect class="cls-6" x="21.97" y="60.21" width="4.88" height="36.91"/>
  <rect class="cls-10" x="23.23" y="39.6" width="2.36" height="57.51"/>
  <rect class="cls-6" x="23.23" y="19" width="2.36" height="20.6"/>
  <rect class="cls-10" x="23.72" width="1.38" height="19"/>
  <rect class="cls-11" x="23.72" width="1.38" height="1.11"/>
  <rect class="cls-1" x="23.79" y="302.64" width="11.87" height="8.68"/>
  <rect class="cls-7" x="13.71" y="311.32" width="20.17" height="40.9"/>
  <polygon class="cls-3" points="15.94 352.22 13.54 352.22 15.23 292.66 17.63 292.66 15.94 352.22"/>
  <polygon class="cls-3" points="22.59 352.22 20.14 352.22 21.22 292.66 23.67 292.66 22.59 352.22"/>
  <polygon class="cls-3" points="27.66 352.22 30.11 352.22 29.03 292.66 26.58 292.66 27.66 352.22"/>
  <rect class="cls-1" x="23.79" y="311.32" width="10.08" height="40.9"/>
  <rect class="cls-9" x="10.13" y="332.73" width="27.3" height="5.64"/>
  <rect class="cls-3" x="13.71" y="311.32" width="20.17" height="32.93"/>
  <rect class="cls-3" x="13.71" y="311.32" width="20.17" height="14.36"/>
  <rect class="cls-3" x="13.71" y="311.32" width="20.17" height="23.8"/>
  <polygon class="cls-6" points="14.64 352.22 12.24 352.22 13.93 292.66 16.33 292.66 14.64 352.22"/>
  <polygon class="cls-10" points="21.29 352.22 18.84 352.22 19.92 292.66 22.37 292.66 21.29 352.22"/>
  <polygon class="cls-6" points="26.36 352.22 28.81 352.22 27.73 292.66 25.28 292.66 26.36 352.22"/>
  <polygon class="cls-13" points="32.92 352.22 35.32 352.22 33.62 292.66 31.22 292.66 32.92 352.22"/>
  <rect class="cls-9" x="22.16" y="176" width="3.26" height="6.38"/>
  <rect class="cls-9" x="23.79" y="176" width="1.63" height="6.38"/>
  <rect class="cls-9" x="22.16" y="187.81" width="3.26" height="6.38"/>
  <rect class="cls-9" x="23.79" y="187.81" width="1.63" height="6.38"/>
  <rect class="cls-9" x="22.16" y="199.62" width="3.26" height="6.38"/>
  <rect class="cls-9" x="23.79" y="199.62" width="1.63" height="6.38"/>
  <rect class="cls-9" x="22.16" y="211.44" width="3.26" height="6.38"/>
  <rect class="cls-9" x="23.79" y="211.44" width="1.63" height="6.38"/>
  <rect class="cls-9" x="22.16" y="223.25" width="3.26" height="6.38"/>
  <rect class="cls-9" x="23.79" y="223.25" width="1.63" height="6.38"/>
  <rect class="cls-9" x="22.16" y="235.06" width="3.26" height="6.38"/>
  <rect class="cls-9" x="23.79" y="235.06" width="1.63" height="6.38"/>
  <rect class="cls-9" x="22.16" y="246.88" width="3.26" height="6.38"/>
  <rect class="cls-9" x="23.79" y="246.88" width="1.63" height="6.38"/>
  <rect class="cls-9" x="22.16" y="258.69" width="3.26" height="6.38"/>
  <rect class="cls-9" x="23.79" y="258.69" width="1.63" height="6.38"/>
  <rect class="cls-9" x="22.16" y="270.51" width="3.26" height="6.38"/>
  <rect class="cls-9" x="23.79" y="270.51" width="1.63" height="6.38"/>
  <rect class="cls-9" x="22.16" y="282.32" width="3.26" height="6.37"/>
  <rect class="cls-9" x="23.79" y="282.32" width="1.63" height="6.37"/>
  <rect class="cls-9" x="27.86" y="282.32" width="2.28" height="6.37"/>
  <rect class="cls-9" x="27.86" y="270.51" width="2.28" height="6.38"/>
  <rect class="cls-9" x="27.86" y="258.69" width="2.28" height="6.38"/>
  <rect class="cls-9" x="27.86" y="246.88" width="2.28" height="6.38"/>
  <rect class="cls-9" x="27.86" y="235.06" width="2.28" height="6.38"/>
  <rect class="cls-9" x="27.86" y="223.25" width="2.28" height="6.38"/>
  <rect class="cls-9" x="27.86" y="211.44" width="2.28" height="6.38"/>
  <rect class="cls-9" x="27.86" y="199.62" width="2.28" height="6.38"/>
  <rect class="cls-9" x="27.86" y="187.81" width="2.28" height="6.38"/>
  <rect class="cls-9" x="27.86" y="176" width="2.28" height="6.38"/>
  <rect class="cls-9" x="17.39" y="223.25" width="2.27" height="6.38"/>
  <rect class="cls-9" x="17.39" y="211.44" width="2.27" height="6.38"/>
  <rect class="cls-9" x="17.39" y="199.62" width="2.27" height="6.38"/>
  <rect class="cls-9" x="17.39" y="187.81" width="2.27" height="6.38"/>
  <rect class="cls-9" x="17.39" y="176" width="2.27" height="6.38"/>
  <rect class="cls-9" x="17.39" y="235.06" width="2.27" height="6.38"/>
  <rect class="cls-9" x="17.39" y="246.88" width="2.27" height="6.38"/>
  <rect class="cls-9" x="17.39" y="258.69" width="2.27" height="6.38"/>
  <rect class="cls-9" x="17.39" y="270.51" width="2.27" height="6.38"/>
  <rect class="cls-9" x="17.39" y="282.32" width="2.27" height="6.37"/>
  <rect class="cls-7" x="11.91" y="302.64" width="23.75" height="8.68"/>
  <rect class="cls-3" x="23.79" y="302.64" width="11.87" height="8.68"/>
  <polygon class="cls-3" points="34.31 316.78 13.25 316.78 13.37 311.32 34.12 311.32 34.31 316.78"/>
  <polygon class="cls-3" points="34.57 322.02 13.1 322.02 13.38 311.32 34.13 311.32 34.57 322.02"/>
  <polygon class="cls-4" points="48.84 133.08 37.13 133.08 37.13 130.76 31.92 128.43 35.15 128.43 35.15 127.09 34.19 112.21 34.21 112.21 34.21 111.11 34.81 111.11 34.81 111.1 36.88 111.1 36.88 110 34.81 110 34.81 108.34 33.61 108.34 33.61 110 30.62 110 30.07 98.78 30.07 98.78 30.07 98.21 31.2 98.21 31.2 98.22 32.4 98.22 32.4 98.21 32.4 97.12 32.4 95.45 31.2 95.45 31.2 97.12 29.57 97.12 29.57 95.45 28.37 95.45 28.37 97.12 26.86 97.12 26.86 60.21 25.6 60.21 25.6 59.12 27.05 59.12 28.36 59.12 28.36 58.02 28.36 55.94 27.05 55.94 27.05 58.02 25.6 58.02 25.6 40.87 27.05 40.87 28.36 40.87 28.36 39.76 28.36 37.68 27.05 37.68 27.05 39.76 25.6 39.76 25.6 39.6 25.6 20.1 27.05 20.1 28.36 20.1 28.36 19 28.36 16.92 27.05 16.92 27.05 19 25.6 19 25.11 19 25.11 1.11 25.11 0 24.43 0 24.43 352.22 26.37 352.22 27.67 352.22 28.82 352.22 30.12 352.22 32.93 352.22 33.89 352.22 35.33 352.22 34.93 338.37 37.44 338.37 37.44 332.73 34.77 332.73 34.47 322.02 34.58 322.02 34.21 312.94 34.16 311.32 35.68 311.32 35.68 302.64 33.92 302.64 33.63 292.66 31.93 292.66 31.93 207.23 32.91 207.23 35.82 176 37.13 158.01 37.13 157.21 37.13 156.38 37.13 155.07 37.13 154.24 37.13 152.92 37.13 152.09 37.13 151.3 37.13 147.36 38.92 147.36 38.92 146.01 38.92 144.65 39.97 144.65 39.97 143.87 39.97 142.77 45.27 142.77 45.27 141.67 40.03 141.67 41.9 140.15 41.98 140.15 42.63 139.57 42.63 138.48 48.84 138.48 48.84 137.38 42.63 137.38 42.63 136.93 42.63 136.29 42.63 136.28 42.6 136.28 40.03 134.18 48.84 134.18 48.84 133.08"/>
</svg>