<?xml version="1.0" encoding="UTF-8"?>
<svg id="Layer_1" data-name="Layer 1" xmlns="http://www.w3.org/2000/svg" viewBox="0 0 87.2 228.4">
  <defs>
    <style>
      .cls-1 {
        fill: #fedcc1;
      }

      .cls-2 {
        fill: #fff;
      }

      .cls-3 {
        stroke-dasharray: 0 0 14.04 14.04;
      }

      .cls-3, .cls-4, .cls-5 {
        fill: none;
        stroke: #25326b;
        stroke-miterlimit: 10;
        stroke-width: 1.17px;
      }

      .cls-6 {
        fill: #5f72b7;
      }

      .cls-7 {
        opacity: .5;
      }

      .cls-8 {
        fill: #231724;
      }

      .cls-8, .cls-9 {
        opacity: .2;
      }

      .cls-10 {
        fill: #874039;
      }

      .cls-4 {
        stroke-dasharray: 0 0 17.01 17.01;
      }

      .cls-11 {
        fill: #314385;
        opacity: .7;
      }

      .cls-12 {
        fill: #bb4781;
      }

      .cls-13 {
        fill: #fbb261;
      }

      .cls-9, .cls-14 {
        fill: #362836;
      }

      .cls-15 {
        fill: #f9a160;
      }

      .cls-16 {
        fill: #bf5d5c;
      }

      .cls-17 {
        fill: #7f95cb;
      }

      .cls-18 {
        fill: #805e6a;
      }

      .cls-19 {
        fill: #aa5450;
      }
    </style>
  </defs>
  <g>
    <polygon class="cls-10" points="25.5 32.77 34.92 21.59 40.81 32.18 31 37.29 25.5 32.77"/>
    <g>
      <path class="cls-15" d="m26.53,29.93l7.33,5.92-18.83,25.42s-8.93,5.09-6.37,2.39c4.67-4.93,26.8-17.49,35.63-9.4,5.7,5.23-3.64,12.02-8.5,14.91-4.87,2.89-30.06,6.7-34.67.23-7.54-10.59,25.41-39.46,25.41-39.46Z"/>
      <path class="cls-9" d="m31.41,68.76c-1.46-2.39-3.09-4.93-3.76-7.68-.63-2.58-.7-5.16-.57-7.77-3.14,1.03-6.26,2.43-9.04,3.91l15.83-21.37-7.33-5.92S-6.42,58.81,1.12,69.39c3.94,5.53,22.87,3.55,31.35,1.06-.37-.57-.73-1.14-1.06-1.7Z"/>
    </g>
  </g>
  <g>
    <g>
      <g>
        <g>
          <path class="cls-12" d="m47.39,180.17s.09,23.98-1.39,41.45c0,0-31.12,13.47-8.05-1.36,0,0-3.9-15.14-7.34-43.01-3.28-26.54,16.78,2.92,16.78,2.92Z"/>
          <path class="cls-8" d="m35.77,210.27c-1.43-7.26-3.36-18.38-5.17-33.02-3.28-26.54,16.78,2.92,16.78,2.92,0,0,.06,15.5-.69,30.66-3.65.18-7.32,0-10.92-.56Z"/>
        </g>
        <path class="cls-2" d="m29.72,226.33c.25,1.59,14.3-4.36,16.31-5.23-.01.17-.03.35-.04.52,0,0-19.12,8.28-16.27,4.71Z"/>
      </g>
      <g>
        <g>
          <path class="cls-12" d="m77.61,181.35s.09,23.98-1.39,41.45c0,0-31.12,13.47-8.05-1.36,0,0-3.9-15.14-7.34-43.01-3.28-26.54,16.78,2.92,16.78,2.92Z"/>
          <path class="cls-8" d="m66,211.45c-1.43-7.26-3.36-18.38-5.17-33.02-3.28-26.54,16.78,2.92,16.78,2.92,0,0,.06,15.5-.69,30.66-3.65.18-7.32,0-10.92-.56Z"/>
        </g>
        <path class="cls-2" d="m59.94,227.51c.25,1.59,14.3-4.36,16.31-5.23-.01.17-.03.35-.04.52,0,0-19.12,8.28-16.27,4.71Z"/>
      </g>
    </g>
    <g>
      <g>
        <g>
          <path class="cls-6" d="m30.44,95.59s-11.57,43.91-.88,108.91c0,0,12.58,5.17,23.15,3.28l-2.32-67.92,10.66,66.27s11.34,4.18,24.86-.49c0,0,1.02-86.72-23.31-111.84,0,0-15.27,1.68-32.16,1.79Z"/>
          <g>
            <path class="cls-11" d="m64.92,97.86c-.38-.98-.76-1.94-1.15-2.88,0,0-16.45.5-33.33.61,0,0-.46,1.75-1.11,5.07,18.4-.74,28.84-1.9,35.6-2.8Z"/>
            <path class="cls-11" d="m27.27,111.86c-1.69,19.17-5.89,55.34,2.29,92.65,0,0,12.58,5.17,23.15,3.28l-2.31-75.51c-10.18-3.14-18.81-10.2-23.13-20.41Z"/>
          </g>
        </g>
        <g>
          <g>
            <path class="cls-5" d="m61.81,95.77s1.09,2.2,2.75,6.45"/>
            <path class="cls-3" d="m69.15,115.49c4.99,16.26,10.88,42.15,12.01,76.07"/>
            <path class="cls-5" d="m81.32,198.58c.03,2.31.04,4.65.02,7.02"/>
          </g>
          <g>
            <path class="cls-5" d="m45.66,138.22s-.05,2.65-.1,7.02"/>
            <path class="cls-4" d="m45.53,162.25c.05,7.9.2,16.88.55,25.5"/>
            <path class="cls-5" d="m46.51,196.27c.15,2.41.31,4.75.5,6.98"/>
          </g>
        </g>
      </g>
      <g>
        <path class="cls-17" d="m59.59,206.72s13.56,4.41,27.09-.42l.52-6.51-28.68.21,1.06,6.72Z"/>
        <path class="cls-17" d="m54.22,200.18l.4,7.66s-14.61,3.84-26.84-2.28c0,0-.95-5.13-.32-5.11.64.02,20.84.81,26.77-.27Z"/>
      </g>
    </g>
  </g>
  <g>
    <g>
      <g>
        <polygon class="cls-10" points="45.62 46.61 44.74 55.44 57.1 53.38 58.87 41.6 45.62 46.61"/>
        <g>
          <path class="cls-19" d="m66.02,21.55s-4.33-10.32-15.78-8.4c-14.33,2.42-16.8,29.65-7.14,34.4,9.66,4.75,27.48-6.56,22.92-26.01Z"/>
          <path class="cls-1" d="m71.54,16.82c-2.38-6.05-5.82-5.96-7.28-5.59-1.07,1.62-2.18,3.21-3,4.97-.61,1.32-1.19,2.63-1.93,3.85-2.36,7.22,1.96,7.44,1.96,7.44-3.22,5.7-1.83,6.66-1.83,6.66,0,0,2.23-.13,3.69-3.63,1.77-4.23,5.57-1.37,3.7,2.94-2.39,5.5-4.74,3.06-4.74,3.06-1.35,4.88-3.72,8.25-3.72,8.25,8.95-3.03,16.23-20.08,13.15-27.93Z"/>
          <path class="cls-1" d="m60.83,20.02s-14.91,7.65-25.9-7.06l5.3,1.57s-5.89-3.53-3.92-9.22l3.14,2.16s-1.37-4.51,2.75-7.46c0,0-1.18,5.1,4.51,5.69,5.69.59,18.05-1.18,18.84,7.65.79,8.83-4.71,6.67-4.71,6.67Z"/>
        </g>
      </g>
      <g>
        <g>
          <path class="cls-2" d="m50.8,39.25s-5.07,4.21-8.71-.21"/>
          <path class="cls-10" d="m43.73,36.77c-1.19-.68-2.11-1.44-3.18-2.13,1.59-1.17,3.06-2.6,4.41-4.06-.11,1.92-1.46,3.57-3.05,4.52,0,0,.04-.96.04-.96.8.73,1.41,1.61,1.79,2.63h0Z"/>
          <path class="cls-14" d="m45.6,26.68c-1.81-.72-2.95-2.01-4.81-2.1-.54-.03-1.19.19-2.08.36,1-4.76,7.24-2.5,6.89,1.74h0Z"/>
          <path class="cls-14" d="m48.34,27.51c.9-5.19,8.08-5.31,8.79.07-.89-.34-1.61-.82-2.43-1.12-2.3-1.01-4.12.14-6.36,1.05h0Z"/>
          <path class="cls-14" d="m39.65,31.45c-.29-1.57.68-3.64,2.54-3.52,1.99.21,2.6,2.72,1.28,3.95-.28-.91-.38-1.63-1.04-2.05-.32-.14-.42-.21-.77-.07-.75.39-1.25,1.06-2.01,1.69h0Z"/>
          <path class="cls-14" d="m49.57,33.65c-.29-1.57.68-3.64,2.54-3.52,1.99.21,2.6,2.72,1.28,3.95-.28-.91-.38-1.63-1.04-2.05-.32-.14-.42-.21-.77-.07-.75.39-1.25,1.06-2.01,1.69h0Z"/>
        </g>
        <g>
          <path class="cls-19" d="m61.25,35.37s1.4-7.72,4.98-7.81c3.58-.09.59,11.86-4.42,9.4-5.01-2.45-.56-1.59-.56-1.59Z"/>
          <path class="cls-10" d="m63.8,36.32c1.13-1.45.16-1.61-1.25-1.75.48-2.08.89-4.49,2.79-5.79.49-.25,1.15-.15,1.54.28.64.83.18,1.71-.28,2.4.06-.55.2-1.52-.26-1.83-.14-.07-.38-.11-.53.03-1.11,1.2-1.56,3.09-2.19,4.61,0,0-.38-.62-.38-.62,1.65.4,2.33,1.82.55,2.67h0Z"/>
        </g>
      </g>
    </g>
    <g>
      <g>
        <polygon class="cls-14" points="72.88 25.01 62.96 24.25 62.43 29 71.3 30.34 72.88 25.01"/>
        <path class="cls-14" d="m63.39,8.63s-9.66,3.68-11.71,12.37l-5.3-1.92s2.7-10.65,10.95-12.81c0,0,3.35-.68,6.06,2.36"/>
      </g>
      <g>
        <path class="cls-14" d="m31.01,26.92c-.32,3.23,2.05,6.11,5.28,6.43l20.91,2.54c3.23.32,6.11-2.05,6.43-5.28l.66-6.73c.32-3.23-2.05-6.11-5.28-6.43l-20.91-2.54c-3.23-.32-6.11,2.05-6.43,5.28l-.66,6.73Z"/>
        <path class="cls-18" d="m30.86,25.73c-.29,2.93,1.86,5.54,4.79,5.83l18.27,2.29c2.93.29,5.54-1.86,5.83-4.79l.6-6.11c.29-2.93-1.86-5.54-4.79-5.83l-18.27-2.29c-2.93-.29-5.54,1.86-5.83,4.79l-.6,6.11Z"/>
        <g class="cls-7">
          <path class="cls-14" d="m36.77,19.7h.02s18.17,2.27,18.17,2.27h.07s.07.01.07.01c.12.01.22.06.29.16.08.09.11.2.1.32l-.6,6.11c-.02.24-.23.39-.46.39l-18.16-2.27h-.07s-.07-.01-.07-.01c-.12-.01-.22-.06-.29-.16-.08-.09-.11-.2-.1-.32l.6-6.11c.02-.25.23-.39.42-.39m0-4.9c-2.71,0-5.04,2.06-5.31,4.82l-.6,6.11c-.29,2.93,1.86,5.54,4.79,5.83l18.27,2.29c.18.02.35.03.53.03,2.71,0,5.04-2.06,5.31-4.82l.6-6.11c.29-2.93-1.86-5.54-4.79-5.83l-18.27-2.29c-.18-.02-.35-.03-.53-.03h0Z"/>
        </g>
      </g>
    </g>
  </g>
  <g>
    <g>
      <g>
        <path class="cls-15" d="m28.45,95.37s16.48,3.53,38.86-.78c0,0,12.56-36.5,1.57-39.25-10.99-2.75-29.18-3.89-34.54,3.53-5.1,7.06-14.52,16.48-3.92,25.12l-1.96,11.38Z"/>
        <polygon class="cls-15" points="41.2 57.21 42.97 56.32 43.26 50.43 62.1 48.67 60.93 55.14 41.2 57.21"/>
      </g>
      <path class="cls-9" d="m47.49,80.4c-5.83.88-12.78,1.44-18.48-.48-.96-.32-1.89-.73-2.77-1.24.71,1.78,2.02,3.56,4.17,5.31l-1.96,11.38s16.48,3.53,38.86-.78c0,0,4.61-13.42,5.8-24.6-7.81,5.06-16.42,9.03-25.61,10.42Z"/>
    </g>
    <g>
      <path class="cls-16" d="m52,42.39s5.49-25.9,3.53-9.03c0,0,5.1-18.45,1.96,0,0,0,5.49-16.68,1.96.78,0,0,4.71-13.34,1.57.98l-3.42,11-5.61-3.74Z"/>
      <path class="cls-13" d="m51.41,40.82l9.22,2.16-5.3,32.58s-4.48,7.86-3.34,4.32c2.08-6.47,12.31-26.56,16.88-24.53,7.06,3.14,6.28,12.95,3.14,17.66s-17.38,19.15-24.33,15.31c-11.38-6.28,3.73-47.49,3.73-47.49Z"/>
    </g>
  </g>
</svg>